<svg xmlns="http://www.w3.org/2000/svg" xmlns:anim="http://www.w3.org/2000/anim" anim:duration="1" anim:ease="ease-in-out" anim:transform-origin="50% 50%" width="268" height="355" fill="none"><g stroke="#fff" stroke-linecap="round" stroke-width="2" clip-path="url(#a)"><path d="M74.842 150.579c1.018-1.891 4.8-7.133 9.636-11.54 1.308-1.191 3.074-2.635 6.423-4.966 4.605-3.206 9.224-5.131 13.808-6.298 7.198-1.832 13.837-1.764 17.342-1.691 2.357.049 4.111.656 7.454 2.615 11.139 8.276 13.178 9.737 17.269 13.457.889.816 1.323 1.105 2.209 2.281" class="svg-elem-1"/><path d="M75.28 151.018c.29 1.75 1.747 3.5 8.819 8.243 2.554 1.713 4.624 2.72 7.102 3.523 2.707.876 10.196.956 19.696.884 7.276-.056 12.185-2.411 20.288-5.181 4.196-1.435 7.699-3.223 9.965-4.175 2.829-1.188 4.604-2.847 7.019-4.02 1.384-1.161 2.42-2.341 2.858-3.216.15-.441.15-.875.15-1.323" class="svg-elem-2"/><path d="M169.952 144.833c.529-.634 1.585-1.904 2.965-3.548 1.812-2.158 5.496-5.448 8.803-7.958 2.631-1.997 5.198-3.659 8.427-5.093 7.127-3.164 11.515-4.085 15.018-4.515 3.826-.469 7.434-.426 11.173 1.151 3.169 1.337 8.675 4.308 12.384 6.399 7.54 4.861 9.234 5.918 12.995 8.197.806.484 1.122.694 1.765 1.229" class="svg-elem-3"/><path d="M170.271 146.742c.528.634 1.795 2.744 4.127 5.084 1.897 1.904 3.824 3.084 4.937 3.56.907.388 4.483 1.326 10.364 1.963 4.077.441 8.134-.204 12.058-.841 4.129-.67 8.608-1.171 12.267-1.7 5.532-.798 13.001-1.699 14.862-2.28 2.008-.627 6.288-1.635 10.181-3.023 3.539-1.261 6.21-2.756 7.488-4.031.32-.635.428-1.38.376-2.174-.053-.374-.158-.689-.266-1.014" class="svg-elem-4"/><path d="M197.058 140.096c-.775.582-1.175 2.724-1.078 5.708.051 1.558.878 2.415 1.708 3.295.792.839 3.075 1.567 7.705 2.691 7.113 1.727 12.03 1.429 14.411.507 5.656-2.191 9.761-4.363 10.641-5.144.777-.691 1.179-1.569 1.473-2.932.533-2.472-1.354-5.676-3.897-8.268-1.635-1.667-3.824-2.802-6.995-4.267-3.848-1.779-9.153-1.969-13.849-2.067-2.758-.058-4.916.777-7.262 1.949-4.644 2.321-7.745 6.948-8.876 10.811-.945 3.226.141 6.228.824 7.889.877 1.468 2.152 2.749 4.102 3.775 1.175.446 2.727.736 4.325 1.036" class="svg-elem-5"/><path d="M107.75 157.135c.775.782 3.707 1.176 11.517-.869 5.819-1.523 9.626-3.922 11.093-5.096 1.577-1.26 2.161-2.842 2.605-4.553.779-3.005-3.064-6.112-7.311-9.385-2.235-1.723-4.925-3.176-7.243-4.411-4.192-2.234-7.709-3.007-10.154-2.861-1.537.091-4.787 3.062-9.677 7.412-3.708 3.297-5.22 6.338-6.488 8.776-1.713 3.29-2.263 7.829-2.069 11.792.108 2.197 1.466 3.109 2.782 3.938 1.861 1.174 4.745 1.621 9.228 1.866 2.928.16 7.198-.046 10.025-.289 5.881-.508 6.949-1.716 7.634-2.008.69-1.853.593-4.503.35-5.382-.147-.396-.341-.686-.835-1.574" class="svg-elem-6"/><path d="M103.637 146.559c0 .873 0 1.745.146 2.292.482 1.812 4.149 2.209 9.188 2.263 1.052.012 1.43-.436 1.678-.78.474-.655.446-2.294.252-4.299-.14-1.442-1.272-2.117-2.246-2.654-1.58-.872-3.624-.641-4.993-.544-1.021.073-1.769.879-2.405 1.66-.539.663-.445 1.957-.154 3.277.26 1.18 2.151 1.233 3.47 1.38 1.215.135 2.403-.241 3.381-.827.424-.255.591-.587.69-1.027.227-1.002.003-2.107-.386-3.083-.462-1.16-1.761-1.671-2.689-1.964-.434-.138-.832-.1-1.225.239-1.993 1.717-1.475 4.449-1.038 6.07.6 2.218 4.357 1.523 5.042 1.28.827-.292.69-1.905.545-3.224-.072-.653-.437-1.222-.877-1.522a1.43 1.43 0 0 0-1.468-.057c-.908.495-1.132 1.518-1.279 2.152-.078.338-.05.732.095.883s.437.054.683-.141c.515-.407.738-1.077.885-1.711a2.29 2.29 0 0 0-.388-1.863c-.175-.226-.632-.15-.88.044-.533.416-.445 1.272-.3 1.858.146.296.437.586 1.168.882.732.295 1.895.586 3.094.885" class="svg-elem-7"/><path d="M209.985 144.797c.582.781 3.12 1.175 4.648.737.74-.212.737-1.516.835-2.541.293-3.046-3.814-5.147-4.79-5.441-.57-.172-1.363-.1-1.859.24-1.016.694-.89 2.686-.696 4.398.152 1.348 2.047 2.21 4.293 2.945 1.146.374 2.44.249 3.138.104.697-.145.794-.436.844-1.022.124-1.455-.435-2.94-1.363-3.966-.745-.824-1.813-1.23-3.082-1.524-.676-.156-1.463-.1-1.959.337-1.112.976-.89 2.886-.599 4.06.138.557.872.786 1.366.935.493.15.881.15 1.226.053.673-.189 1.227-.781 1.667-1.416.426-.613.053-1.615-.239-2.495-.265-.798-.98-1.277-1.468-1.669-.242-.195-.681-.004-.978.288-.654.645-.69 1.858-.545 2.885.066.463.437.736.78.837a.94.94 0 0 0 .98-.288c.55-.648.445-1.955.3-3.08-.061-.466-.437-.641-.877-.74-.441-.1-1.023-.1-1.419.142s-.591.727-.642 1.219.045.977.289 1.372.632.686.977.836.636.15.64.053-.286-.291-.586-.491" class="svg-elem-8"/><path d="M157.105 143.328c.097 1.939.194 3.878.244 6.864s.05 6.961-.387 10.802c-.436 3.841-1.308 7.428-3.018 12.039s-4.231 10.137-6.111 15.068-3.043 9.1-3.643 11.829c-.844 3.847-.502 5.382-.161 5.968 2.183 3.755 11.501 1.567 12.826 2.303.327.182.732.246 1.077.005s.636-.823.786-1.801.15-2.336.15-3.734" class="svg-elem-9"/><path d="M162.393 200.614c0 .194.485.973 1.365 2.146.686.786 1.276 1.377 1.717 2.06.15.392.15.877.15 1.376" class="svg-elem-10"/><path d="M177.412 113.644c-1.49 2.794-2.537 4.699-2.775 5.219-.217.476 1.917-2.286 3.424-4.546.433-.649.017-.396-.268-.019-.583.769-.943 1.694-1.227 2.166-.856 1.423 4.125-3.469 5.082-4.234.508-.406-1.764 1.764-2.249 2.343-.263.312 2.692-1.663 6.221-4.112 1.03-.715.829.158-.06 1.333s-2.379 2.759-2.355 2.923c.285 1.95 4.169-3.043 5.487-3.517 2.976-1.07-3.748 6.483-3.059 6.493 5.364.077 8.986-4.986 10.443-5.69 1.047-.507-2.072 1.057-6.967 3.881-.859.495 2.668-1.376 12.539-5.097 1.882-.71 2.378-.716 2.385-.671.079.508-3.453 2.286-6.844 5.016-.96.772-.038.68 1.046.211 2.458-1.063 5.221-2.633 8.922-4.04 2.185-.83 5.099-1.593 4.817-1.28-2.829 3.14-7.841 3.432-6.589 3.201 5.275-.976 10.862-1.838 13.498-1.838 1.682 0-5.995 1.126-7.592 1.643-1.068.345 5.004.708 12.924 1.315 1.576.121-2.138 1.445-3.822 2.111s-1.313 1.039 3.396 2.488 13.743 3.964 18.77 5.446 5.771 1.854 5.736 1.999c-.206.851-3.041-.602-7.345-2.054-2.966-1.001-7.657-2.104-9.73-2.402s-1.421.354-.2 1.202 2.99 1.873 7.441 3.844c4.451 1.972 11.529 4.859 13.965 5.694.443.152-3.04-1.905-3.98-1.813-.421.041-.567.65-.43 1.077.602.798 3.783 2.393 8.248 4.274 1.764.67 2.509.763 2.994.577" class="svg-elem-11"/><path d="M153.704 115.62c-2.723 4.318-4.041 6.675-4.792 7.566-.367.436-.751.799-.337-.918 1.35-5.609 2.965-9.75 3.106-9.987.698-1.173-2.007 5.286-3.477 6.73-3.023 2.967-.52-6.304-.847-6.868-.152-.262-.607-.192-1.264.599-3.688 4.44-3.768 7.67-4.426 8.703-.297.467-.471.847-.614.34-1.166-4.145-1.175-6.91-1.924-7.806-2.374-2.839-5.46 5.403-6.116 5.451-.379.028-.843-.232-1.129-.7-1.583-2.588-1.791-5.735-2.495-6.871-.928-1.496-2.869 3.662-3.48 4.042-.687.427-.428-2.528-.614-3.942-.268-2.033-3.847 2.998-9.872 4.588-4.781 1.262-13.197 2.894-18.82 3.946-5.621 1.051-8.23 1.33-10.83 1.474s-5.115.144-6.132-.135c-1.016-.28-.457-.839.483-1.452.94-.614 2.244-1.266 6.315-2.44s10.87-2.851 14.745-3.714c3.875-.864 4.62-.864 4.585-.631s-.874.698-4.565 1.823-10.211 2.894-14.268 4.085-5.454 1.75-5.662 2.038c-.506.703 2.525.381 3.606.662.453.118.615.467.338.89-.775 1.187-5.514 2.862-11.485 5.024-2.26.818-2.897 1.23-3.047 1.376s.223.052.555.051c.611.091.899 1.957 1.411 4.638.512.912 1.537.912 2.592.912" class="svg-elem-12"/><path d="M214.979 156.842c.194.194.585.584 1.122 1.17.441.586.835 1.274 1.225 2.007.197.345.391.636.885 1.523" class="svg-elem-13"/><path d="M219.091 154.198c.582 1.551 1.269 2.932 2.196 4.152 1.218 1.318 2.111 2.308 2.55 2.748.246.15.536.15.836.15" class="svg-elem-14"/><path d="M224.967 153.61c-.194-.194-.003.385.632 1.704.731 1.222 1.518 2.112 2.3 2.553.393.15.781.15 1.181.15" class="svg-elem-15"/><path d="M230.549 153.316c1.357 1.551 4.189 4.289 8.487 7.906 2.165 1.677 4.298 3.035 6.415 4.025s4.152 1.571 6.25 2.171" class="svg-elem-16"/><path d="M78.079 156.842a92 92 0 0 0-2.395 2.98c-.343.442-.731.927-1.076 1.322s-.636.686-.936.986" class="svg-elem-17"/><path d="M79.548 159.192c0 .388-.388.878-1.073 1.513-.296.344-.49.731-.881 1.222-.39.491-.972 1.072-1.865 1.671" class="svg-elem-18"/><path d="m83.954 161.836-1.365 1.364c-.395.396-.686.686-.933.982-.246.295-.44.586-.934 1.179" class="svg-elem-19"/><path d="M88.067 163.011c-1.551 1.745-5.452 4.68-10.977 8.104-4.07 2.067-7.126 3.154-10.054 3.79-1.572.248-3.317.345-5.115.445" class="svg-elem-20"/><path d="M130.517 237.554c.769.333 6.068-1.425 11.525-2.884 6.679-1.785 9.453 1.995 10.172 2.217.387.119.829.221 1.605-.272 2.076-1.319 3.227-3.054 3.835-3.443 1.626-1.042 4.701 2.151 7.543 2.994 3.891 1.153 6.716-1.049 9.382-2.713.555-.347.89-.448 1.28-.45.829.109 2.601 1.101 5.314 2.763 1.393.783 2.822 1.442 4.627 2.454" class="svg-elem-21"/><path d="M146.836 241.551c0 .219 0 .439 4.286.607 4.286.169 12.858.279 21.69.392" class="svg-elem-22"/><path d="M155.495 249.21h1.265c1.046 0 3.024 0 5.728-.666" class="svg-elem-23"/><path d="M238.404 153.186c.711 7.021.899 14.65-.526 27.917-.997 9.282-3.559 23.631-5.195 32.04-2.044 10.508-4.508 14.321-8.259 19.531-6.26 8.696-13.128 14.384-16.8 16.658-1.862 1.153-3.851 2.108-8.771 5.215-4.92 3.108-12.745 8.29-17.043 11.211-4.298 2.92-4.831 3.422-6.459 4.445" class="svg-elem-24"/><path d="M103.38 169.002c-.176 3.874-.352 7.748-.443 18.283-.09 10.536-.09 27.616.174 37.999.345 13.572 1.865 18.932 2.841 22.573 2.396 4.725 6.659 8.994 12.79 12.465 1.35.632 2.054.808 2.78.989" class="svg-elem-25"/><path d="M251.715 149.794c0 3.169 0 5.682.44 9.922.957 9.214 2.228 16.212.995 19.398-3.698 5.298-7.118 9.092-8.716 10.068-.718.449-1.246.801-2.857 1.697" class="svg-elem-26"/><path d="M246.912 179.674c-1.238 2.305-3.02 4.263-3.289 5.24-.122.439.611.8 1.323.893.712.094 1.593-.082 2.31-.437s1.246-.883 1.518-1.948.272-2.649-.08-3.465c-.352-.817-1.056-.817-1.771-.552-2.321 1.864-2.855 3.465-3.034 4.53-.002.536.174 1.064.889 2.142" class="svg-elem-27"/><path d="M245.312 186.077c0-.528 0-1.057.176-1.593s.528-1.064.358-1.609" class="svg-elem-28"/><path d="M249.047 157.797c1.062-.352 3.191-1.419 4.709-3.193.269-.536.445-1.065.712-1.601s.619-1.064.982-3.209" class="svg-elem-29"/><path d="M250.648 149.794c-.177 0-.353 0-.707-.176a5.6 5.6 0 0 1-1.332-.974c-.448-.446-.8-.974-2.23-2.585" class="svg-elem-30"/><path d="M245.845 157.264c-.352 1.761-.71 3.372-.976 5.672-.091 1.595-.091 4.06-.355 5.506s-.793 1.798-1.87 2.695" class="svg-elem-31"/><path d="M239.976 194.614c-.176 0-.352 0-.003-.44.35-.44 1.23-1.321 2.137-2.761" class="svg-elem-32"/><path d="M242.643 191.413c-.352.352-1.237.885-2.657 1.507-1.419.446-2.673.803-3.826 1.158-.624.179-1.328.355-3.121 1.07" class="svg-elem-33"/><path d="M246.912 137.521c2.3 0 6.211-.704 8.441-2.217 1.044-.707 1.34-2.222 1.606-3.817.322-1.923-.261-3.741-1.147-5.248-1.058-1.802-2.668-3.119-4.351-3.743-.922-.342-2.212.256-3.023.878-2.816 2.158-2.059 5.423-1.707 6.757.146.556 1.056.454 1.771.19s1.42-.793 1.959-1.769c1.23-2.229.021-6.478-2.903-11.536-6.495-11.235-17.891-12.576-19.134-12.048-.695.295-.891 1.585-.985 2.393s.083 1.337 1.142 1.697c2.882.98 5.696.541 6.851-.254 1.474-1.014.809-3.996.457-6.744-.438-3.415-2.487-5.619-3.906-6.067-.686-.217-1.42.784-1.782 2.82-.947 5.31.517 11.117 2.996 15.554 5.751 10.295 17.797 7.681 19.395 7.593.722-.04 1.246-.265 1.518-1.588s.272-3.788-.696-6.027c-2.02-4.668-7.542-7.931-12.777-11.039-8.251-4.9-12.747-3.669-14.609-3.228-2.364.558-3.479 3.46-4.013 6.384-.305 1.673-.181 3.804-.005 5.157.176 1.352.528 1.881 1.59 2.153 2.747.704 5.517.096 7.292-.699 2.226-.998 2.857-3.468 3.124-5.152.346-2.186-.614-5.066-3.53-9.052-4.795-6.554-11.304-9.716-14.321-11.05-1.375-.608-2.665-.454-3.388-.102-2.937 1.43-1.614 7.63-.377 10.312 2.255 4.883 12.449 1.432 14.047.725.816-.36 1.246-1.411 1.518-2.569.59-2.512-1.137-6.307-4.327-11.008-3.506-5.164-8.186-9.353-12.267-12.816-5.942-5.041-9.984-4.205-11.315-3.853-1.513.4-1.875 2.84-2.142 5.056-.286 2.378.261 4.368 1.235 5.875 2.636 4.08 8.268 3.124 10.309 2.948.996-.086 1.865-.528 2.23-1.59.366-1.062.19-2.823-.517-4.346-1.419-3.057-8.492-5.963-17.464-8.898-3.633-1.188-5.627-.997-7.153-.117-3.2 1.846-4.199 9.033-5 17.114-.571 5.77.609 10.088 2.295 13.375 1.163 2.268 3.82 3.132 7.19 3.665 3.68.583 6.95-.347 9.081-1.499.963-.52 1.427-1.329 1.7-2.22.574-1.88-.08-4.268-1.494-7.016-1.979-3.846-6.926-5.971-11.803-7.481-5.248-1.625-9.188-.816-10.963.512-4.051 3.034-3.214 8.618-2.862 11.728.138 1.218 1.056 1.526 1.771 1.796 1.392.524 4.258.627 7.636.362 1.288-.1 1.617-.792 1.622-1.504.029-3.827-6.366-8.519-11.189-10.413-1.493-.586-2.855.085-3.743.704-1.039.724-.718 3.458-.542 6.211.076 1.18.528 1.873 1.766 2.412 3.179 1.384 6.585 1.254 8.449.99.843-.12 1.337-.793 1.609-1.417.542-1.243-.256-3.463-1.849-6.037-1.761-2.847-5.866-3.482-8.708-4.37-2.102-.658-3.924-.366-5.698.608-4.492 2.465-4.634 9.676-4.64 13.6-.001.912.529 1.775 2.207 2.229 1.678.453 4.671.453 6.389-.251 1.718-.705 2.071-2.113 1.988-3.72-.176-3.417-3.092-7.117-7.259-10.58-7.882-6.55-15.752-5.272-18.876-4.037-2.534 1.002-1.875 5.157-2.054 7.198-.086.981.173 1.865 1.673 2.319s4.316.453 6.032.277c1.715-.176 2.243-.528 2.428-1.414.184-.885.008-2.294-.611-3.548-1.264-2.56-4.349-4.455-7.454-6.144-2.67-1.452-5.966-.638-8.719.248-2.137.687-2.951 3.196-3.484 5.68-.523 2.435-.006 4.634.525 6.232 1.65 4.965 12.622 2.857 14.487 2.417.896-.211 1.336-1.32.992-2.83-.878-3.853-4.431-7.21-7.713-9.608-5.916-4.324-13.777-1.71-18.331.772-2.074 1.13-2.057 4.268-2.323 6.576-.225 1.945.261 3.39 1.147 4.455 1.044 1.255 2.492 1.785 3.644 2.052.615.142 1.329.09 1.692-.702.362-.792.362-2.377-.342-3.898-3.146-6.792-12.422-7.752-17.864-7.763-5.019-.01-6.147 8.334-6.953 13.945-.191 1.331-.09 2.574-.002 3.473.088.9.264 1.428 1.675 1.7s4.053.272 5.677.096c1.625-.176 2.153-.528 2.426-1.59.704-2.747-.609-5.87-2.911-8.441-6.121-6.838-15.637-7.044-21.322-6.694-3.974.244-5.194 3.908-5.904 5.947-.875 2.514-1.072 4.898-.808 6.584.131.838.792 1.51 1.769 1.961 6.879 3.176 15.745.632 16.725-.163.525-.427.098-1.675-.609-2.836-1.602-2.63-4.97-4.72-8.254-6.408-2.554-1.313-5.082-.638-7.035.248-4.373 1.983-5.87 13.638-6.243 20.444-.29 5.269 11.173 6.587 20.073 6.427 1.613-.029 1.451-2.113.747-3.279-1.521-2.517-4.62-3.305-6.838-3.751-2.347-.472-5.776 1.849-9.33 5.042-2.86 2.572-3.574 7.996-4.642 13.415-.676 3.434.518 6.512 2.468 9.444 1.585 2.383 6.038 2.244 9.685 2.684 1.252.151 1.005 1.32.915 2.302-.533 5.765-4.712 13.414-4.277 17.344.59 5.331 10.22 1.614 12.352.995.963-.279 1.428-1.147 1.788-2.214.81-2.4.189-5.16-1.403-7.468-1.87-2.71-6.22-2.862-10.034-2.686-3.673.169-7.566 2.476-11.472 6.197-4.164 3.968-4.83 8.732-5.096 11.128-.246 2.208.438 4.365 2.03 6.23 4.4 5.15 12.622 2.948 15.557 2.331 1.148-.241.998-1.848.03-3.012-2.34-2.809-6.839-3.308-10.39-3.22-2.858.071-5.877 1.678-9.161 4.338-3.173 2.57-4.73 6.23-5.885 10.392-1.64 5.907-.104 11.664 1.931 15.303 4.185 7.481 12.713 5.629 15.914 5.189 1.163-.16 1.088-1.321.472-2.039-1.452-1.691-4.175-1.79-6.392-1.262-2.792.666-4.72 4.082-6.76 7.537-2.566 4.344-2.772 9.698-1.98 14.047.807 4.426 5.419 6.339 8.257 7.318 1.377.475 2.839.098 3.74-.256.902-.355 1.254-.883 1.436-1.86.437-2.352-.523-5.069-2.383-7.377-2.112-2.621-6.31-2.862-9.596-2.422-2.42.324-3.132 3.108-3.666 5.322-.726 3.014.171 6.494 1.585 9.776 1.766 4.099 6.574 6.68 10.477 9.078 3.568 2.193 7.835 2.063 10.858 1.534 1.19-.207 1.262-1.584.913-3.097-.825-3.568-4.074-6.854-7.537-9.076-1.456-.934-2.583-.99-3.655-.729-2.272.554-3.746 2.748-4.722 4.965-1.017 2.31-1.34 4.72-1.43 6.937-.1 2.431 2.032 5.072 5.045 7.646 3.461 2.959 8.892 2.953 12.715 2.513 1.418-.163 1.534-1.32 1.536-2.39s-.173-2.303-1.32-3.466c-2.77-2.808-6.318-3.132-7.828-2.601-2.337.822-2.582 4.085-2.769 6.752-.051.735.528 1.42 1.502 1.959 6.304 1.254 16.229.549 25.062-4.322 1.705-2.044 2.937-4.861 4.207-7.764" class="svg-elem-34"/><path d="M165.809 85.764c-.177.88-.353 1.761-.179 2.479.173.717.701 1.246 1.502 1.606.8.36 1.857.536 2.753.45.897-.085 1.601-.437 1.876-1.147s.098-1.766-.873-3.19c-2.363-3.468-9.3-6.76-18.352-9.78-7.81-2.606-15.327-2.69-21.896-1.986-5.869.63-9.812 5.502-12.92 9.317-2.695 3.307-3.135 6.685-2.607 8.553.225.795 1.585.635 2.393.195a2.4 2.4 0 0 0 1.257-2.303c-.177-2.177-3.623-4.711-8.057-7.553-4.413-2.828-12.785-3.22-22.111-3.134-3.877.035-5.982.965-7.687 2.297-3.463 2.704-4.735 7.2-5.535 10.927-.38 1.77-.273 3.375.432 4.192 1.48 1.715 5.149.464 7.814-.334 1.12-.335 1.609-.974 1.88-1.862.273-.888.273-2.121-.167-3.108-1.82-4.08-7.553-2.95-9.594-2.599-1.03.178-1.865 1.057-2.582 2.3-4.886 8.463-1.268 21.162.95 24.273 1.647 2.311 7.008 1.888 12.165 1.536 1.841-.126 1.987-1.056 2.078-1.947.198-1.94-.614-4.621-2.737-7.462-2.472-3.307-6.766-3.221-9.07-3.487-2.642-.306-5.518.965-8.18 3.535-2.988 2.883-4.28 8.79-5.702 15.532-1.4 6.634-.547 13.534.955 20.012 1.514 6.529 7.195 10.261 11.717 12.571 4.634 2.367 10.237 1.617 13.972.648 1.546-.401 1.27-2.905.39-4.519-1.86-3.409-7.097-4.821-12.948-5.888-6.804-1.241-12.125.693-14.788 3.351-6.31 6.297-5.351 16.871-4.298 24.894 1.147 8.731 11.913 8.918 14.135 8.921.832.001.99-.701.464-1.414-1.408-1.909-4.084-2.5-6.213-2.412-2.144.089-4.627 1.502-7.201 3.896-2.612 2.428-3.482 6.138-4.37 10.917-1.456 7.831.163 14.958 2.289 18.952 4.534 8.517 17.93 9.89 22.509 9.818 1.85-.029-2.55-5.056-7.6-8.431-5.844-3.905-12.559-2.345-16.464-.306-3.638 1.898-5.534 5.426-6.867 9.497-2.04 6.227 1.483 13.345 5.562 18.054 3.422 3.951 12.6 3.855 22.109 3.858 3.702.001 5.106-.702 6.008-1.414 1.59-1.257 1.617-4.261 1.176-8.161-.537-4.761-5.22-9.786-11.429-14.492-5.915-4.485-13.176-5.101-19.211-5.192-2.867-.043-5.33.438-7.393 1.587s-3.647 3.087-4.463 5.317-.817 4.696.592 7.639C44.564 237.6 53 242.086 61.08 244.664c5.665 1.806 9.03 1.707 10.276 1.179.592-.251.19-1.585-.693-2.129s-2.468-.544-3.989.072c-7.34 2.975-7.934 13.587-9.268 18.486-.307 1.126.256 2.219 1.23 3.204 5.225 5.282 13.774 4.373 17.064 3.58 1.379-.332 1.352-2.377.739-4.602-1.445-5.237-5.41-8.649-8.698-9.716-1.984-.645-4.012.341-6.144 1.848-1.802 1.275-1.971 5.232-1.62 9.85.154 2.003 1.057 3.21 2.74 4.285 4 2.555 8.631 2.863 10.416 2.07.747-.331-1.032-2.377-2.46-3.369-2.708-1.883-5.7-1.532-7.918-.737-6.055 2.172-8.454 9.146-9.442 13.863-.455 2.174.086 4.54.88 6.584 1.777 4.566 9.157 2.593 10.846 1.977.83-.303.808-1.849.723-2.924s-.438-1.956-1.324-2.585c-2.033-1.446-4.626-1.345-6.4-.905-4.457 1.106-4.986 8.599-5.26 13.681-.073 1.338.263 2.922.794 4.002.944 1.921 3.199 2.153 4.797 2.417 1.246.793 1.79 2.041 2.054 3.372.264.627.793 1.156 1.87 1.7" class="svg-elem-35"/><path d="M83.104 171.67c3.874 6.691 6.398 11.019 7.726 12.529 1.388 1.577 4.178 1.344 6.222.904.902-.194 1.163-1.32 1.08-1.95s-.61-.982-1.411-.899c-.8.083-1.857.611-2.753 2.644-4.584 10.395-2.15 15.58-1.62 16.469 1.24 2.074 5.504.541 7.815-.166 1-.306 1.253-1.411 1.171-2.481-.184-2.375-2.036-4.1-3.722-4.989-1.418-.747-2.94-.718-4.36-.541-5.13.636-5.698 13.312-4.73 16.799.405 1.456 3.28 1.7 6.3 1.612 1.261-.037 1.963-.265 2.414-.883.45-.619.627-1.676.541-2.66s-.437-1.865-1.059-2.407c-.621-.541-1.502-.717-2.307-.632-1.564.166-3.293 2.209-5.07 5.048-4.766 7.614-.906 18.691.158 19.579.915.764 2.49.718 3.823.366.555-.147.454-1.057.278-1.684a3 3 0 0 0-.974-1.515c-.446-.36-.974-.536-1.862-.275-2.236.658-3.92 2.748-4.808 4.965-.912 2.277-.541 7.009.342 12.694.623 4.017 4.618 5.722 8.073 7.144 1.957.806 4.687.718 6.312.545 1.625-.174 2.153-.702 2.425-1.59.626-2.045-.608-5.328-2.823-8.967-2.28-3.749-6.846-5.09-10.572-5.891-3.31-.711-6.065.256-7.93 1.497-3.677 2.446-2.414 8.705-1.886 12.168.244 1.597 1.585 2.583 2.657 3.303 1.98 1.329 5.683 1.435 9.33.995 1.252-.151 1.006-1.321.475-2.126-2.748-4.171-10.29-5.256-14.932-5.173-4.209.075-5.165 8.604-5.088 14.74.047 3.701 2.932 5.624 4.528 6.157.862.289 1.947.182 2.667-.17.72-.353 1.073-1.057 1.254-1.86s.182-1.683-.258-1.873c-1.253-.539-3.285 3.348-4.885 8.756-1.792 6.052.336 10.968 2.198 13.1 1.637 1.873 4.36 2.323 6.58 2.769.971.195 1.69-.083 2.053-.614.823-1.203.187-3.727-.696-6.477-.464-1.445-1.94-2.575-3.015-2.418-2.591.38-3.038 4.608-3.305 7.444-.332 3.526.613 6.592 1.945 8.369.572.764 1.155 1.072 1.78 1.254.623.181 1.328.181 1.867-.347s.89-1.585 1.254-3.74" class="svg-elem-36"/><path d="M257.584 131.118c.352 0 1.237 0 2.657-.44 1.851-.574 2.849-4.693 3.916-10.365 1.311-6.967-.341-12.832-1.937-16.116-1.474-3.036-3.74-4.378-5.424-4.912-.949-.3-2.211-.181-3.11.17-1.654.649-2.5 3.016-3.3 6.204-.481 1.915-.273 4.596.696 6.661 1.923 4.1 6.133 5.101 8.617 5.368 2.471.266 4.634-.437 6.144-1.502 1.184-.834 1.521-2.489 1.788-4.439.312-2.283-.79-5.157-3.004-8.439-2.596-3.846-6.494-5.976-9.423-7.13-2.309-.911-4.546-.281-6.235.783-.701.442-.808 1.065-.459.897 1.457-.7 2.313-2.66 2.58-5.136.492-4.563-.79-9.428-3.004-12.98-2.225-3.567-5.613-4.292-7.033-4.559-1.397-.262-2.849.086-4.092 1.057-1.874 1.463-1.254 5.24-1.078 8.257.158 2.713 1.771 4.816 3.81 6.59 4.689 4.081 10.399 3.748 13.79 3.041.634-.132.718-.883.808-1.683.21-1.848-2.55-7.172-7.08-14.19-2.705-4.192-6.851-7.057-12.265-9.99-4.547-2.463-8.828-1.89-11.669-.741-2.732 1.106-3.572 4.885-4.372 8.342-.901 3.893.256 8.1 1.76 12.003 1.646 4.268 6.478 6.78 12.857 8.466 8.339 2.204 15.855 2.235 20.118 2.06 1.806-.075 2.855-.53 3.399-1.943 1.407-3.656-1.392-9.06-5.824-14.295-4.822-5.696-12.798-9.887-21.049-13.795-7.337-3.475-13.118-3.407-15.872-3.143-1.192.114-1.872.792-2.323 1.769-2.007 4.344-.633 7.208.25 8.452 1.236 1.74 7.436 1.254 13.927.901 2.289-.124 2.441-1.056 2.532-2.652.23-4.055-2.199-9.241-6.9-14.3-9.775-10.518-20.921-12.752-23.053-12.843-.902-.038-1.427.438-1.787.971-.755 1.119-.718 3.02-.542 5.061.167 1.931 1.948 3.477 4.077 4.72 1.993 1.164 5.33 1.254 8.708.814 1.327-.173 1.616-1.321 1.358-2.743-.635-3.49-4.16-6.94-8.329-9.78-3.744-2.551-8.983-3.22-14.135-2.871-2.216.15-3.391 1.758-4.29 3.45-3.691 6.944-2.505 13.6-.736 17.442 1.754 3.81 9.233 1.878 11.832 1.083.497-.152.272-1.147-.168-2.126-2.838-6.311-12.686-10.93-19.102-11.667-2.849-.326-4.992 2.663-6.945 4.79-2.2 2.394-2.502 5.871-2.681 8.622-.167 2.575.883 5.077 1.948 7.032.666 1.224 3.017 1.08 5.327.817.934-.107 1.254-.793 1.436-1.77a6.7 6.7 0 0 0-.435-3.814c-3.454-8.014-15.893-9.978-19.649-9.631-2.119.195-2.321 5.138-2.412 9.842-.081 4.197 2.561 7.931 6.726 11.215 2.234 1.763 5.397 2.756 11.781 3.743s16.069 1.692 21.234 1.703c5.165.01 5.517-.694 5.698-1.673 1.028-5.544-5.127-12.878-11.858-19.174-3.84-3.591-9.549-6.825-14.121-8.991-7.762-3.677-13.308-3.42-16.325-2.625-3.044.802-4.464 4.172-5.264 7.01-.774 2.746.08 5.7 1.23 8.362 1.219 2.824 11.224 3.927 23.757 4.375 4.608.165 5.667-.784 6.299-1.94 1.372-2.505.462-6.309-1.747-10.564-3.085-5.943-10.394-9.266-16.338-12.019-10.917-5.057-19.503-3.666-22.611-2.961-2.994.678-3.134 7.086-2.87 12.95.106 2.355.792 3.399 1.769 4.295 2.116 1.943 6.653 2.855 13.915 3.655 4.426.488 10.432.272 13.604-.256s3.348-1.585 2.822-2.921c-1.247-3.174-5.669-6.14-11.343-8.98-6.016-3.012-15.813-3.045-25.676-2.428-3.918.245-5.461 1.849-6.63 3.364-2.304 2.988-2.775 6.851-2.777 9.871-.001 1.271.701 1.964 1.854 2.59 8.49 4.62 20.191 1.705 21.967.289.895-.713 1.073-2.121.814-3.284-.542-2.436-4.159-4.365-8.681-6.318-4.864-2.1-13.054-2.502-22.378-1.8-4.125.31-6.683 2.814-8.484 4.868-3.267 3.726-3.589 8.81-3.413 12.897.071 1.63.529 2.326 3.439 2.689 8.313 1.036 14.874-.166 16.296-1.318 1.173-.95.899-3.287.107-6.123-1.148-4.107-8.06-7.473-15.869-10.583-6.751-2.69-13.545-1.89-19.225-1.537-5.077.315-8.919 3.367-11.584 6.824-2.624 3.405-2.329 8.1-2.508 12.003s1.588 7.132 4.072 9.44c2.316 2.151 5.866 3.214 9.596 3.748 1.61.23 2.673.181 3.041-.611 1.002-2.156-2.107-5.947-5.832-9.586-3.667-3.584-8.014-4.914-11.562-5.448-3.514-.528-7.124.875-10.32 3.004-5.563 3.706-6.952 11.723-7.582 19.02-.292 3.39 1.857 6.24 4.778 8.724 3.92 3.332 13.214 3.577 22.99 2.782 3.826-.311 5.197-1.675 6.01-3.1 1.655-2.896.82-6.584-.418-9.778-1.422-3.666-5.507-6.235-9.231-8.633-3.658-2.355-7.486-2.062-10.058-1.71-2.917.4-5.784 3.719-8.45 7.71-2.48 3.715-2.329 10.042-2.155 16.349.072 2.631 1.23 4.018 2.564 4.919 5.827 3.94 12.187 1.441 14.585.91 1.027-.227 1.518-.883 1.79-2.123s.272-3.178-.256-4.704c-.991-2.863-4.258-4.023-7.011-4.557-1.847-.358-3.655.523-5.872 2.207-2.596 1.97-4.72 5.418-6.585 9.233-1.702 3.483-1.704 9.679-.645 16.963.779 5.357 6.565 7.688 11.621 9.465 5.038 1.771 9.714 1.436 12.47.907 1.106-.212 1.171-1.584.998-2.833-.378-2.722-2.655-5.165-5.582-6.942-2.806-1.703-5.968-1.435-8.451-1.171-2.593.276-4.458 2.217-5.79 4.255-1.539 2.357-1.523 7.54.24 14.9 2.126 8.872 10.13 13.999 15.186 17.286 4.712 3.063 9.714 2.956 12.646 3.134 1.169.072 1.7-.173 1.971-1.76.272-1.588.272-4.581-1.048-7.444-2.84-6.158-9.677-10.162-16.677-13.184-8.287-3.578-15.778-.211-19.15 2.537-3.454 2.814-5.176 8.26-6.243 14.382-.963 5.523.694 10.957 3.175 16.016 2.438 4.972 6.76 7.939 10.132 9.895 2.726 1.581 5.704 1.08 7.836.816.93-.115 1.427-.792 1.611-1.328.346-1.007-.525-2.137-1.411-2.938-2.51-2.267-9.05 3.442-13.422 8.335-3.853 4.311-3.482 9.69-2.69 13.51.663 3.195 7.356 2.961 12.777 2.697 2.09-.102 2.78-.792 3.319-2.297s.891-3.97.368-6.032-1.931-3.647-4.066-4.816c-4.643-2.542-10.32-2.598-14.935-2.246-4.04.308-6.781 2.839-8.734 5.144-2.005 2.367-2.679 5.869-3.212 9.417-.529 3.514.699 7.3 3.001 11.291 6.214 10.772 19.393 11.146 20.82 10.442 1.992-.983-7.931-6.734-19.209-11.536-7.768-3.308-14.548-.752-19.785 1.374-4.814 1.955-7.056 6.576-8.211 11.539-.654 2.809-.627 6.371.779 9.681 3.005 7.076 11.18 10.445 18.28 12.31 6.319 1.66 11.416 1.881 14.35 1.529 1.051-.126.998-1.057.646-1.596s-1.056-.891-1.771-.896c-5.59-.042-5.347 13.857-4.818 16.608 1.268 6.604 13.302 7.216 18.755 7.051.967-.03 1.163-1.585 1.256-2.481.094-.897-.082-1.601-.437-2.052s-.883-.627-1.948-.365c-1.064.261-2.649.965-3.73 1.944-2.026 1.837-2.152 5.419-1.712 9.058.406 3.355 3.636 5.442 6.65 6.952 3.136 1.571 6.767 1.345 9.08.993.8-.122.552-1.057.109-1.419s-1.147-.363-1.774-.275-1.155.264-1.692.795c-1.256 1.244-1.784 3.023-2.051 4.97-.408 2.978.261 5.875 1.675 7.828 1.903 2.628 9.215 2.502 15.623 1.889 1.985-.19.774-2.551-.474-3.634-2.282-1.979-7.102-1.798-12.166-1.446-3.293.229-4.744 2.662-5.632 4.349-.747 1.417-.718 3.644-.365 5.954.601 3.947 7.288 3.218 8.003 3.482 3.825 1.413-5.506 7.553-5.776 9.239-.128.8.611 1.51 1.412 1.873.8.362 1.856.362 2.753-.166.896-.528 1.6-1.585 3.393-3.74" class="svg-elem-37"/><path d="M80.97 203.151c3.874 10.213 6.574 16.178 8.169 17.422 1.69 1.316 3.74 1.254 4.895.989.51-.116.627-.792.542-1.328s-.437-1.065-1.059-1.513-1.502-.8-2.748-.541c-2.988.62-5.52 4.511-7.473 9.391-1.846 4.612-2.502 9.703-2.329 15.289.194 6.234 3.194 10.613 5.587 12.833 4.937 4.58 11.469 3.484 14.318 3.22.779-.072.032-.792-1.035-1.065-2.413-.615-5.16.433-7.907 2.732-4.002 3.349-5.443 7.481-5.977 9.167-.249.788-.18 1.51-.005 2.137.176.627.528 1.155 1.15 1.604 3.599 2.594 9.153 2.23 11.288 1.526.96-.317.726-2.113.285-3.455-.902-2.75-3.636-5.253-6.563-7.564-1.386-1.094-3.102-1.254-4.359-1.259s-2.137.347-2.767.88c-1.205 1.022-1.344 4.253-.816 8.426.459 3.624 4.258 5.976 8.068 8.107 4.573 2.559 12.699 2.148 20.254 2.151 2.807.001 3.506-.702 3.869-2.295s.363-4.234-.078-6.035c-.44-1.8-1.32-2.681-2.214-3.31-1.658-1.168-4.09-1.345-6.752-.729-2.883.668-4.104 4.352-5.259 6.747-1.002 2.078-.808 5.774-.456 10.125.266 3.282 2.839 5.269 5.32 6.867 1.341.864 3.185 1.246 4.004.99s.643-1.313.2-2.033-1.147-1.073-2.214-1.166c-6.995-.612-12.454 10.381-13.44 13.593-.213.689-.092 1.419.26 1.87.757.968 2.487.809 3.73.544.587-.124.891-.792 1.073-1.416.374-1.288-.171-3.111-1.057-4.976-.415-.875-1.238-1.336-1.953-1.609-1.35-.514-3.201-.096-5.242.611-2.21.766-4.18 4.432-6.315 9.306-1.145 2.615-.725 6.107-.021 8.535 1.22 4.206 5.149 5.816 8.078 6.616 1.324.361 2.401.272 2.945-.432 1.335-1.727-.336-4.973-2.022-7.284-.713-.976-1.51-1.254-2.489-1.435s-2.212-.181-3.375.435c-2.552 1.352-3.836 4.351-4.636 6.923-.821 2.637.08 5.08 1.23 7.03 1.558 2.644 5.412 4.277 8.702 5.08 1.147.28 1.353-.43 1.003-.174-1.45 1.063-2.489 4.338-3.023 8.153-.504 3.609 1.404 7.214 4.069 10.058 1.08 1.083 1.609 1.436 2.233 1.089s1.329-1.404 2.054-3.559" class="svg-elem-38"/><path d="M66.564 113.51c0 .529 0 1.057.528 1.241s1.584.008 2.217-.347c.632-.355.808-.883.723-2.036-.086-1.152-.438-2.913-.8-4.727" class="svg-elem-39"/><path d="M63.896 103.906c-1.057 0-6.355 2.113-13.647 5.755-2.65 1.323-2.713 2.409-2.804 4.183-.225 4.41.262 8.017 1.412 9.439 1.354 1.674 5.237.899 8.171.195 1.188-.285.998-2.113.47-3.367s-1.585-2.311-3.097-2.855-3.45-.544-4.976.072c-2.945 1.189-4.904 5.408-6.947 11.782-3.042 9.487-.822 17.29 1.126 19.777 4.423 5.647 11.738 3.575 14.14 2.694 2.595-.952.464-5.336-.51-7.11-.524-.954-1.502-1.774-2.308-2.315-1.387-.933-3.996-.371-6.928.957-2.293 1.039-3.124 6.467-4.458 12.595-.897 4.12.427 7.233 2.377 9.631 4.144 5.098 13.683 3.663 17.861 3.135 1.612-.204 1.89-1.585 1.366-3.009-.523-1.425-1.931-3.186-3.89-4.269-4.069-2.251-8.371-1.622-11.034-.739-6.588 2.185-6.953 12.43-6.958 19.903 0 1.454.528 1.971 1.414 2.331 4.337 1.764 7.118.542 8.273.011.522-.24.627-.883.718-1.507.09-.625.09-1.329-.261-2.22-.353-.891-1.057-1.948-2.212-2.492-2.527-1.19-5.253-.368-7.116.339-2.317.88-3.655 3.199-4.719 5.325-1.354 2.704-1.609 8.689-.64 16.677.904 7.461 7.19 11.253 12.155 13.206 5.482 2.156 10.514 2.327 13.446 2.062 1.196-.107 1.7-.792 1.971-2.385.273-1.592.273-4.234-.608-6.563-1.774-4.693-6.92-7.494-11.976-9.537-4.969-2.009-9.89-1.526-13.44-1.086-3.115.386-5.35 4.517-7.218 9.658-2.127 5.855.422 11.757 3.08 16.015 2.99 4.793 8.003 7.667 12.349 9.711 4.225 1.987 7.76 1.526 8.919.91.596-.318-.075-1.849-.52-2.748-.446-.899-.974-1.428-2.303-1.7s-3.442-.272-4.97.256c-5.422 1.874-5.621 11.35-5.632 18.654-.006 3.703 3.014 6.948 5.762 9.877 2.78 2.962 6.852 3.842 9.872 4.375 1.252.222 1.963.182 2.326-.435.363-.616.363-1.849-.253-3.276-1.401-3.244-4.528-5.349-8.335-6.504-5.529-1.678-10.6.248-13.174 2.641-5.57 5.177-5.088 14.831-3.41 23.197 1.958 9.76 15.696 12.465 20.37 12.844 1.62.131.01-4.082-1.051-6.745-1.078-2.701-3.56-3.575-5.155-3.666-1.993-.113-3.74 1.505-5.16 3.541-2.037 2.922-2.497 7.024-3.03 10.397-.473 2.988 1.051 6.936 3.887 11.463 4.95 7.904 11.928 7.057 13.705 6.972.765-.037 1.072-.966 1.166-1.681s-.083-1.419-.79-1.782-1.94-.363-3.015-.099-1.955.792-2.76 1.769c-4.836 5.86-4.37 14.321-4.107 16.095.138.922.793 1.774 1.681 2.316 1.912 1.165 4.095 1.075 5.515 1.342.708.133 1.419.091 1.342-.526-.26-2.066-2.394-3.647-3.898-4.447-2.12-1.127-5.07.08-7.2.966-1.746.725-2.325 2.844-2.946 4.706-.66 1.979-.275 4.535 1.139 7.638 5.693 6.507 8.895 8.999 10.936 10.154.984.451 1.864.627 2.771.808" class="svg-elem-40"/><path d="M191.954 95.369c-.705.352-1.409.704-.803.885 2.441.732 5.066.006 5.954-.701 1.182-.94.718-3.375-.25-6.12-1.639-4.646-7.542-7.745-12.513-10.232-4.134-2.068-8.198-2.507-11.837-2.067-3.355.406-5.443 3.46-6.953 6.032-2.856 4.864-1.526 8.99-.64 10.856 1.799 3.786 8.703 2.947 11.725 2.683 1.114-.097 1.262-.792 1.353-1.504.202-1.583-1.142-4.965-4.682-10.02-4.418-6.31-13.15-9.89-21.311-12.913-3.988-1.477-8.161-1.262-10.512-.913-2.35.35-2.878 1.23-3.062 2.3s-.008 2.302.434 3.201c.81 1.643 3.282 2.324 6.121 2.858 1.416.266 2.838.181 3.3-.523.461-.705-.067-2.113-1.219-3.28-2.503-2.531-7.545-2.953-12.43-2.336-7.522.949-10.418 15.145-10.802 22.042-.41 7.36 12.251 5.621 16.783 5.445 1.723-.067 2.244-.528 2.516-1.854.729-3.551-.96-7.91-4.325-12.166-4.423-5.594-11.554-9.265-17.768-11.754-4.891-1.96-9.452-.734-13.179.77-3.832 1.548-5.36 5.422-5.893 8.703-.274 1.685-.182 3.458.17 4.365 1.1 2.832 5.864 1.44 7.638 1.088.943-.187 1.775-1.056 2.228-2.123s.454-2.476-.075-3.994c-1.145-3.29-4.61-6.144-8.953-8.63-4.79-2.743-9.359-2.508-11.755-2.156-5.779.85-5.976 9.599-5.8 11.285.086.82.529 1.51 1.238 2.049 1.576 1.196 5.144 1.254 8.876.901 1.444-.352 1.972-1.056 2.244-2.035s.272-2.212.272-3.482" class="svg-elem-41"/><path d="M203.693 101.238c7.993.534 10.842.358 12.085-.261.624-.311.891-1.148 1.073-2.127.404-2.182-1.404-6.299-5.39-12.24-2.195-3.272-5.57-6.47-9.756-9.338-8.767-6.006-15.61-7.163-17.651-6.365-1.959.766-3.652 2.75-5.074 5.146-1.191 2.006-.899 4.189-.723 5.875.086.82.528 1.51 1.062 2.049 2.463 2.488 6.931 1.787 9.239 1.7 1.078-.042 1.955-.265 2.145-1.852.544-4.561-3.701-10.306-10.346-15.893-3.698-3.108-8.583-6.115-14.114-9.068-5.53-2.953-11.693-5.594-16.452-7.131-7.757-2.505-13.66-2.252-18.716-1.636-5.508.672-9.89 4.88-13.529 8.428-3.378 3.294-4.562 6.947-4.386 9.789.079 1.266.529 2.137 1.767 2.854 3.092 1.793 9.225 1.79 15.004 1.526 2.095-.095 2.433-.792 2.614-1.416.375-1.288-.699-3.64-3.265-6.92-1.474-1.885-4.151-3.458-8.767-5.334s-11.306-3.812-16.25-4.898c-7.85-1.724-12.43-.915-14.828.061-1.006.41-1.518.8-1.878 1.334s-.537 1.238-.451 1.865c.085.627.437 1.155 1.235 1.603 5.882 3.305 14.319.635 15.741-.43.61-.456.717-1.064.808-1.688.191-1.318-.614-3.287-2.561-5.594-2.312-2.74-6.403-3.92-9.773-5.608-3.404-1.707-7.478-.638-10.674.688-3.299 1.368-4.285 5.952-5.44 9.676-1.222 3.94-.104 8.543 1.844 12.804 1.935 4.233 7.283 5.893 13.395 7.048 8.278 1.565 14.18.456 15.69-.694 1.794-1.366 1.345-5.589-.152-10.994-2.217-8.006-9.863-13.27-14.74-17.443-8.934-7.644-19.47-5.81-25.276-3.868-3.811 1.275-4.188 11.69-5.434 22.525-.535 4.655-.19 7.665.605 10.087 1.475 4.493 5.768 6.878 10.467 8.3 5.383 1.63 11.656.547 16.455-.339 1.852-.341 2.335-1.238 2.607-2.04.547-1.616-.433-4.528-2.908-8.695-3.354-5.645-10.133-8.468-14.927-10.336-3.533-1.376-7.131-.106-10.327 1.486-3.256 1.622-4.285 5.69-5.44 9.498-1.678 5.53.952 12.536 4.764 18.31 6.28 9.509 18.94 7.422 21.99 6.45.682-.217.535-1.675.362-2.923-.378-2.722-3.535-6.046-8.5-9.773-5.276-3.96-13.331-5.184-21.236-5.01-5.404.118-7.964 2.841-9.295 4.437-3.155 3.78-2.052 10.655.243 16.975 2.38 6.556 11.738 4.202 13.609 3.498.788-.297-.067-2.113-.867-3.103-1.509-1.865-5.059-2.238-9.14-2.417-7.433-.325-13.698 5.669-17.627 10.65-4.047 5.129-2.324 10.68-1.884 13.076.467 2.54 3.284 3.66 5.325 4.282.977.297 1.865.445 2.495.184.63-.262.981-.966 1.075-1.769s-.083-1.684-.614-2.225c-1.108-1.131-5.664 1.038-11.349 4.941-4.362 2.994-5.899 8.011-7.764 12.357-1.859 4.334-1.88 9.346-1.264 14.402.671 5.508 5.408 9.713 10.813 12.733 6.338 3.542 12.213 2.69 14.345 2.602.903-.038 1.427-.264 1.7-.971s.272-1.94.008-2.927c-.265-.987-.793-1.692-1.945-2.054-1.153-.363-2.914-.363-4.35.253-6.545 2.811-7.485 13.577-7.32 23.176.108 6.228 5.139 11.755 10.106 16.194 4.482 4.005 9.797 5.363 13.617 6.163 1.522.319 2.236.272 2.687-.432.45-.705.627-2.113.19-3.631-.955-3.309-3.64-5.44-5.769-6.507-1.93-.968-4.626-.187-7.377.608-2.95.853-5.429 4.877-8.006 8.959-2.117 3.352-1.707 7.657-1.267 11.827.441 4.183 3.636 7.398 6.563 9.972 2.79 2.455 5.616 3.13 7.126 2.956.715-.082.982-1.23.987-2.035a2.53 2.53 0 0 0-.88-1.961c-.534-.451-1.238-.627-2.217-.366-2.332.623-4.186 2.396-5.43 4.167-1.511 2.154-1.254 5.336-.99 8.439.316 3.703 2.922 7.739 6.644 11.733 4.024 4.319 9.612 5.979 13.254 7.313 1.497.548 2.409.453 2.95-.163s.718-1.849.72-2.748-.173-1.427-.616-1.611-1.147-.008-2.406.707" class="svg-elem-42"/><path d="M218.632 75.626c5.117.534 15.629-1.227 19.273-4.951 3.091-3.16 2.071-8.719-.395-15.183-1.674-4.39-7.395-9.458-11.167-12.974-5.814-5.419-10.539-6.553-13.999-6.643-3.312-.087-6.149 1.68-8.457 3.983-1.262 1.259-1.956 3.359-2.233 4.797s.075 2.318.696 3.212c1.328 1.908 4.17 3.21 7.807 4.186 10.584 2.842 21.986.101 23.053-1.315.577-.767.363-2.121-.254-3.46-1.384-3.01-5.584-5.256-10.727-7.033-10.028-3.464-15.858-.907-17.635.421-.862.645-1.072 1.857-1.166 2.93-.093 1.072.083 2.129.702 2.76 4.694 4.797 17.672-.418 21.252-3.443.796-.672.891-1.948.809-3.284-.185-2.98-2.74-7.02-6.462-12.075-4.201-5.706-12.254-10.947-21.042-15.922-6.745-3.82-13.814-3.77-19.851-3.066-5.054.59-7.857 5.325-10.077 9.138-4.769 8.19-1.889 15.93-.208 19.038 1.744 3.226 7.369 3.663 14.452 4.463 10.541 1.191 18.011-.256 19.788-1.496 1.574-1.1 1.435-4.965.731-10.021-.779-5.588-6.382-10.242-12.411-14.415-6.164-4.265-14.06-5.095-20.631-5.453-2.869-.156-4.81.347-6.513 1.409-3.563 2.223-5.442 6.926-6.776 11.362-1.183 3.936-.101 8.194 1.313 12.275 1.531 4.42 7.806 6.777 15.425 8.908 9.809 2.745 19.236 1.796 24.921 1.265 2.356-.22 3.572-.883 4.207-1.948s.635-2.649-.245-4.522c-2.034-4.327-6.921-7.747-12.064-10.412-5.085-2.635-10.864-2.153-15.655-1.89-4.503.249-8.025 2.57-10.6 5.142-2.424 2.421-2.953 6.312-2.513 10.13.202 1.749 1.32 2.937 2.478 3.924 6.924 5.903 20.362 2.065 23.472.915 1.332-.492 1.526-2.03 1.708-3.281s.181-2.484-.347-3.647c-1.128-2.483-4.082-3.66-6.92-4.194-6.675-1.255-14.578 4.247-17.446 6.835-1.064.96-.717 2.935-.277 4.357.206.666 1.32.717 2.038.632s1.246-.438 1.694-1.06c2.173-3.013 1.697-6.842.993-9.502-.942-3.557-7.791-6.406-15.866-9.25-6.921-2.437-13.988-1.798-19.849-1.358-4.296.323-6.614 2.932-7.948 4.968-.771 1.176-.454 3.268.075 4.882.528 1.614 1.584 2.847 2.657 3.746s2.129 1.427 7.427 1.7c5.299.271 14.807.271 20.145.007 5.339-.264 6.219-.792 6.585-1.593s.189-1.856-.43-2.929c-1.354-2.346-4.877-4.45-9.135-6.494-3.979-1.91-9.78-1.702-16.61-1.88-7.005-.184-13.099 1.763-17.362 4.778-3.605 2.548-4.472 6.766-5.272 9.871-.386 1.496-.272 2.93.432 4.007.704 1.078 2.113 1.782 7.417 2.145 5.303.363 14.46.363 20.233-.077s7.886-1.32 9.151-2.038 1.617-1.246 1.886-2.135c.629-2.074.627-5.151-.341-8.788-1.234-4.632-6.662-7.04-10.651-9.26-4.504-2.506-11.816-2.241-19.187-1.358-5.401.647-8.487 5.323-10.973 9.756-2.498 4.455-2.508 9.087-2.156 12.46.172 1.64 1.057 3.02 2.036 4.097 1.91 2.103 5.947 2.86 11.442 3.394 12.773 1.24 19.946-3.362 22.789-6.024 1.986-1.859 1.975-6.392 1.273-12.248-.735-6.138-8.156-10.69-16.658-14.69-4.869-2.29-12.024-2.062-16.883-1.806-7.602.4-11.981 3.81-15.09 6.736-6.595 6.211-3.14 17.702-1.459 21.25 1.966 4.15 8.778 6.595 17.291 8.463 4.404.966 9.218.635 11.931.37 2.713-.264 3.241-.792 3.513-2.825.738-5.512-2.016-12.176-6.981-17.768-4.895-5.512-12.451-7.945-20.167-9.722-8.101-1.865-14.887-.73-19.147 1.04-2.07.861-3.557 2.477-4.55 4.347-2.048 3.861-1.707 8.454-1.002 12.445.812 4.602 5.5 7.753 10.196 10.24 5.77 3.055 14.839 2.684 24.334 2.686 8.643.003 14.724-2.478 17.923-5.314 2.969-2.632 2.334-7.649 1.542-12.259-.986-5.738-7.179-11.21-14.006-16.626-3.437-2.727-7.708-4.183-13.404-5.179-12.775-2.231-21.586-1-23.981-.026-2.483 1.009-3.837 3.641-4.637 7.182-1.248 5.52.608 10.685 2.998 13.702 2.794 3.525 8.97 4.463 17.47 5.264 12.673 1.193 21.226-.432 22.559-2.204 3.854-5.118-5.383-14.567-12.387-20.778-3.661-3.247-8.235-5.858-12.968-8.19a73.2 73.2 0 0 0-14.316-5.264c-8.766-2.206-16.05-2.243-21.287-1.803-2.45.206-4.357 1.32-5.707 2.566-2.57 2.372-2.956 9.57-2.254 19.156.631 8.625 7.804 14.276 14.54 18.448 3.562 2.207 8.145 3.292 13.318 4.194s10.984 1.254 13.89 1.171c2.904-.082 2.728-.61 1.845-.97-2.338-.954-4.805-.718-6.312-.278-2.054.6-3.295 3.812-4.362 7.358-.575 1.91-.363 4.25.165 5.957.942 3.044 4.61 4.557 8.778 5.712 4.565 1.266 8.292.633 9.98-.339 2.035-1.17.638-5.24-.776-8.433-1.726-3.897-5.517-5.178-7.555-5.712-1.134-.297-2.567-.181-3.82.347-2.583 1.088-4.104 4.082-5.26 6.92-1.095 2.693-.808 5.875-.632 8.805.148 2.454 2.476 4.722 6.198 7.03 4.388 2.72 11.197 2.862 16.976 2.51 2.106-.128 2.433-1.057 2.614-2.124.416-2.447-1.755-7.272-8.3-13.926-3.977-4.044-11.826-6.478-17.482-8.287-9.308-2.976-16.162-2.347-20.78-1.552-2.042.351-3.21 1.675-4.109 2.748-1.647 1.964-1.971 7.09-1.531 13.665.493 7.37 5.957 9.113 5.173 9.207-4.592.546-11.093-2.399-18.011-2.844-7.256-.468-13.545 2.377-17.896 6.81-4.002 4.078-4.917 9.792-5.718 14.495-.702 4.125-.096 7.756 1.756 11.566 3.056 6.289 11.984 9.353 20.406 11.576 9.385 2.476 15.62.819 16.864-.067 1.242-.885 1.254-3.02 1.166-5.149-.089-2.144-1.678-4.626-4.25-7.025-2.296-2.141-5.08-2.062-6.854-1.622-2.146.533-3.737 3.989-5.426 7.273-1.314 2.554-.99 5.61-.11 9.156 1.206 4.856 7.625 9.074 14.276 13.777 6.781 4.795 13.278 6.875 16.923 7.678 1.327.293 1.707-.429 1.36-1.318-.925-2.369-4.428-4.271-8.42-5.693-3.983-1.419-7.4-.723-9.705.512-3.53 1.892-4.461 6.048-5.083 10.026-1.187 7.596-.098 14.687 1.494 18.505 1.523 3.65 5.515 4.735 7.47 5.007.76.106.9-1.312.462-1.945-.437-.632-1.494-.808-2.126-.635-1.518 1.775-2.767 3.727-3.034 5.414-.09.805-.09 1.51.977 3.302" class="svg-elem-43"/><path d="M176.607 137.034c.22-.55 1.048-1.438 3.26-2.906 1.439-.954 3.752-1.962 5.354-2.804s2.482-1.392 2.661-1.648c.241-.346-1.819.186-4.446 1.539-1.799.927-4.332 2.728-5.582 3.58s-1.084.796-.091.3 2.808-1.432 5.559-2.546c2.751-1.115 6.382-2.38 8.363-3.142s2.2-.982 2.149-1.095c-.052-.114-.382-.114-2.615.767-2.234.88-6.36 2.64-8.348 3.382s-1.713.412-.443-.226c1.269-.637 3.525-1.573 5.485-2.274 1.959-.702 3.555-1.143 5.862-1.617s5.279-.969 6.644-1.252c1.365-.282 1.035-.337-1.638.212s-7.68 1.705-10.424 2.3-3.074.595-2.722.292c.353-.302 1.398-.907 3.972-1.907 2.574-.999 6.646-2.375 9.376-3.221s3.995-1.121 3.877-1.345c-.119-.225-1.659-.39-3.691-.42s-4.507.08-6.14.247-2.348.387-2.579.473.044.031 4.532-.053 13.181-.193 17.769-.222c4.588-.03 4.808.025 1.923.054s-8.882.028-11.586-.054c-2.704-.083-1.934-.248-.134-.36a67 67 0 0 1 7.537-.004c2.93.164 5.901.55 7.789.885 1.889.336 2.604.612 2.752.753.149.142-.292.142-3.434-.711s-8.975-2.558-11.731-3.272c-2.757-.713-2.262-.383-1.512-.076.75.308 1.741.583 3.021 1.055 1.281.472 2.821 1.132 6.476 2.352 3.654 1.221 9.376 2.981 12.516 3.998s3.525 1.237 3.531 1.351-.379.113-3.576-.767-9.194-2.641-12.173-3.548-2.759-.907-1.656-.522c1.104.385 3.085 1.156 5.701 1.992s5.806 1.718 8.165 2.446c2.36.729 3.79 1.279 4.417 1.535s.407.201-1.385-.708a367 367 0 0 1-7.124-3.741c-1.976-1.072-2.471-1.402-2.561-1.545-.09-.142.24-.087 2.748 1.097s7.185 3.494 10.144 4.877 4.06 1.768 3.141 1.086-3.889-2.442-5.255-3.157c-1.365-.714-1.035-.329.648.97s4.709 3.499 6.735 4.908 2.962 1.959 3.196 2.05c.367.142-2.586-1.682-5.145-2.962-.713-.357-.357.15.226.734 1.326 1.328 3.743 2.917 6.243 4.278.9.49 1.069.536 1.127.4.181-.431-.879-1.523-3.533-3.459-1.776-1.296-4.634-2.927-6.217-3.86-1.583-.934-1.858-1.044-1.862-.881-.017.662 1.6 2.048 3.459 3.713 1.261 1.131 2.315 1.511 2.899 1.651.306.073-1.562-1.848-5.688-4.674-2.289-1.569-5.281-2.937-7.856-4.087-2.575-1.151-4.72-1.921-6.816-2.538-4.04-1.189-6.557-1.51-7.389-1.455-1.795.118-3.559.058-6.707.661-2.144.41-5.838 1.761-8.206 2.549-4.718 1.57-5.928 2.79-6.599 3.264-1.237.876 3.1-2.411 4.465-3.052.573-.269-2.124 1.241-3.813 2.35-.9.59-1.965 1.108-3.797 1.859-1.831.751-4.417 1.687-6.602 2.691-2.185 1.005-3.89 2.05-4.356 2.203-2.247.74 2.54-3.127 2.93-3.686.035-.049-.16.542-1.319 2.063-1.158 1.522-3.249 3.997-4.436 5.438s-1.407 1.77-1.438 1.94c-.318 1.753 4.574-4.489 5.826-5.63.071-.064-.574.682-1.622 2.424-1.94 3.221-4.118 5.262-4.674 5.736-.116-.132.106-.634.383-1.133.113-.225.168-.39.224-.56" class="svg-elem-44"/><path d="M112.691 124.192c1.079 0 1.874 0 5.622.48 3.513.449 10.28 1.438 13.348 1.842s2.23.224 1.199-.078c-2.249-.66-5.202-1.394-8.105-1.757-1.162-.145-1.704-.124-1.352.056 1.511.773 3.685 1.269 5.494 1.964 2.217.851 3.885 1.063 3.739.885-2.587-3.17-5.114-2.845-5.418-2.968-.079-.032.057.357 2.036 1.83 1.979 1.472 5.813 4.108 7.879 5.526s2.245 1.538 2.307 1.48c.888-.823-2.53-3.077-4.253-4.559-.693-.596-1.064-.822.039.402 1.103 1.225 3.68 3.921 5.217 5.58 2 2.158 2.868 3.233 3.624 3.839.237.191.337-.113.248-.476s-.329-.842-1.561-2.317-3.449-3.932-4.501-4.988-.872-.636-.57-.121c.302.516.722 1.115 2.525 3.221 1.804 2.106 4.98 5.701 6.526 7.374 1.546 1.672 1.366 1.312 1.064.857-.68-1.023-2.652-3.047-6.24-6.126-1.988-1.706-4.726-3.198-6.593-4.211-2.809-1.524-4.894-2.222-6.676-3.038-2.776-1.272-5.481-1.065-6.873-1.185-.476-.041-.011-.786-.518-1.149-.578-.413-2.244-.362-5.293-.454s-7.544-.093-9.499-.183c-1.264-.058 4.118-.515 7.932-.665.804-.032-7.15-.211-10.302-.333-3.152-.121-2.912-.241-2.429-.423 1.192-.448 2.782-.848 5.221-1.24 1.594-.256 3.937-.452 5.261-.605 1.324-.154 1.563-.214-.291.295-1.853.508-5.808 1.587-9.013 2.592s-5.543 1.903-6.896 2.486c-1.354.583-1.653.823-.1.407s4.968-1.494 6.518-1.9 1.13-.106-1.063 1.037a319 319 0 0 1-8.544 4.258c-3.078 1.462-4.037 1.805-4.25 1.928-1.228.709 3.523-3.079 6.365-4.469 1.18-.577 1.763-1.03-.685-.018s-7.96 3.469-10.68 4.555-2.48.726-.17-.628c2.311-1.353 6.685-3.69 8.519-4.834s.995-1.024.083-.812c-3.632.843-5.154 2.33-5.428 2.693-.076.101.385.124 3.326-.535 2.941-.66 8.454-1.978 12.072-2.747 5.148-1.094 7.261-1.313 7.808-1.616.301-.166-2.401-.244-3.715-.274-.424-.009 3.059-.09 6.694.179s8.189.868 10.445 1.207c2.256.338 2.076.398 1.414.339-1.809-.161-3.333-.424-3.728-.334.265.27 3.449 1.054 7.897 1.992 1.571.338 1.751.398 1.936.46" class="svg-elem-45"/><path d="M142.344 267.069c.726 1.935 3.276 3.173 9.536 3.54 9.992.585 16.718-.117 17.876-.665 1.898-1.526 3.118-2.871 3.911-3.602.31-.368.431-.731.555-1.105" class="svg-elem-46"/><path d="M138.313 264.504c-2.418 0-4.389-.241-6.879-1.575-4.545-3.027-8.983-6.471-11.667-9.274-1.112-1.352-1.716-2.561-2.339-3.807" class="svg-elem-47"/><path d="m79.386 184.734 2.394-2.794" class="svg-elem-48"/><path d="M81.78 179.546c-.263 0-2.77 1.58-6.492 4.304-1.954 1.429-1.888 5.114-1.295 9.302.233 1.647 1.778 1.949 3.31 2.152 7.064.939 11.652-1.919 12.915-2.915.828-.652.74-2.851.345-5.838-.374-2.825-3.053-4.339-5.044-5.269-1.678-.783-3.332-.674-4.924.054-1.772.81-2.933 2.46-3.929 5.894-2.143 7.392-.48 14.248.98 16.774 1.538 2.66 9.401 2.542 14.565 2.148.66-.05.87-.66.874-1.127s-.26-.993-.856-1.265c-1.404-.638-3.258-.139-4.982.85-2.728 1.566-3.994 6.7-5.589 12.007-1.557 5.185-1.474 10.655-.947 15.83.522 5.134 3.982 8.935 6.636 11.658 4.512 4.631 10.65 3.279 12.115 3.015.48-.086.147-.79-.252-1.127-.792-.67-2.258-.473-3.85.122-1.898.708-3.065 3.515-4.326 6.632-1.384 3.419-1.804 8.835-1.674 14.615.082 3.658 2.52 5.816 4.575 7.741 4.992 2.472 8.188 3.007 9.386 2.809.407-.197.407-.592.407-.999" class="svg-elem-49"/><path d="M119.689 267.336c-3.424 8.164-5.188 13.029-4.793 14.685.604 2.529 3.316 4.461 6.167 5.79 6.406 2.985 12.181.546 14.109-.713.873-.57 1.005-1.654 1.075-2.655.143-2.051-1.251-4.326-3.242-6.385-1.546-1.599-3.464-2.075-5.19-2.274-1.454-.169-2.931.195-4.325.923-1.333.696-1.539 2.46-1.738 3.787-.198 1.314.327 2.796 1.189 4.322 1.621 2.871 6.301 3.003 9.892 2.807 1.262-.069 1.221-1.117 1.024-1.985-.97-4.263-9.476-6.187-15.743-6.598-2.939-.193-5.464 1.72-7.324 3.777-1.57 1.737-1.744 4.85-.952 8.699.813 3.95 4.12 5.876 6.573 6.805 1.361.517 3.11.667 3.992.342.882-.326.882-1.247.421-2.117-1.011-1.909-3.254-2.869-5.178-3.468-1.971-.614-4.062.455-5.919 1.979-2.065 1.695-3.729 4.98-5.192 8.632-1.141 2.847-.15 5.534 1.309 7.857 3.131 4.985 9.032 7.522 12.241 7.867.449.048.407-.593.209-.73-.197-.138-.593-.006-.928.391-.782.927-.87 2.655-.804 4.381.031.806.198 1.463.858 2.065 1.846 1.13 5.305 2.067 9.29 2.666 1.746.203 2.931.203 4.152.203" class="svg-elem-50"/><path d="M197.502 264.942c-2.106 7.769-4.213 15.538-5.365 23.952-1.151 8.414-1.283 17.237-1.418 26.327" class="svg-elem-51"/><path d="M138.045 282.1c.263 0 .399 7.375.267 19.799-.132 5.05-.395 7.552-.926 9.894-.53 2.343-1.32 4.45-2.135 6.62" class="svg-elem-52"/><path d="M202.318 254.417c.817 1.184 3.575 3.49 4.133 4.243 1.328 1.792-3.212 2.784-3.488 3.357-.136.283-.094.618-.071.896.118 1.447 2.549 2.116 2.641 2.618.329 1.785-.459 2.984.272 5.301.912 1.352 2.157 2.737 3.191 4.089.351.67.351 1.307.351 1.963" class="svg-elem-53"/><path d="M209.072 252.35c-1.819.819-2.757 1.422-2.711 1.812.148 1.271 3.615 1.86 6.037 3.03 2.178 1.053-4.287 2.46-4.998 3.147-.773.746-.671 1.84-.648 2.413.01.256.068.437.228.576 1.756 1.529 6.038.233 6.819.004.3-.088.326-.32.327-.504 0-.185-.045-.367-.251-.461-.205-.093-.569-.093-.893-.025-.617.13-1.151.845-1.655 1.876-.507 1.036-.601 2.185-.487 3.239.109 1.017 1.076 1.751 2.197 2.302 2.539 1.245 4.44.463 4.831.326.141-.049.072-.228-.179-.344-.667-.308-1.401-.3-1.883-.141-.674.223-.989 1.17-1.288 2.38-.519 2.109.156 3.935.912 4.623.667.608 1.541.556 1.955.693.391.129-.181.872.115 1.216 2.133.394 4.153-.063 5.415-.796.534-.369.853-.733 1.181-1.108" class="svg-elem-54"/><path d="M210.45 247.801c.273 3.366.778 5.601 1.511 6.495.628.767 1.426.994 2.113 1.063.775.077 1.428-.159 1.772-.525.15-.16.117-.367.026-.506s-.272-.23-.525-.209-.572.158-.872.592c-.737 1.065-.991 2.776-1.175 4.517-.183 1.732.636 3.36 2.009 4.781.727.751 1.738 1.33 3.049 1.772s2.948.669 4.883.741 4.118-.02 5.425-.18c1.307-.161 1.67-.388 1.881-.596.21-.209.255-.39.188-.621-.434-1.476-2.64-1.84-3.19-1.909-.275-.035-.55.158-.758.41-.929 1.121-.624 2.548-.419 3.465.24 1.077 1.991 1.703 3.824 2.186 1.606.422 3.04.073 4.027-.224.427-.129.578-.525.671-1.007.214-1.102-.406-2.685-1.687-4.495-1.468-2.074-3.769-2.929-5.306-3.342-1.097-.295-1.869-.05-2.351.156a1.6 1.6 0 0 0-.461.39c-.116.139-.207.275-.438.554" class="svg-elem-55"/><path d="M215.137 243.804c1.637 5.549 2.981 8.817 3.989 9.506 1.961 1.339 4.094.557 4.485.26.339-.259.347-.986.279-1.721-.027-.286-.205-.37-.344-.326s-.275.226-.345.456c-.148.486.157 1.103.684 1.767 1.304 1.646 3.786 1.727 5.168 1.683.25-.008.324-.273.371-.526-.453-1.809-1.969-4.111-2.887-4.891a8 8 0 0 0-1.063-.694" class="svg-elem-56"/><path d="M199.975 255.244c-.364 3.594-.728 7.187-.711 9.447.017 2.261.427 3.079 1.115 3.979 2.724 3.558 5.059 3.39 5.542 3.458.82.116-1.073 3.087-1.624 5.838-.435 2.171-.096 4.055.269 5.66.175.77.729 1.332 1.145 1.682.686.577 1.61.535 2.39.444.572-.067.786-.642.924-1.077.173-.547-.044-1.173-.319-1.632-.134-.224-.456-.277-.665-.278s-.345.09-.461.25c-.257.357-.255 1.578-.027 3.184.095.67.501.97 1.12 1.225 1.47.605 3.376.624 5.186.465 1.822-.16 2.974-1.033 3.479-1.491.744-.676.234-1.747.119-1.956-.034-.062-.16.293-.184.547s.022.482.386.644c.365.163 1.047.254 2.467.278 3.558.06 5.988-.205 6.356-.502.14-.162.185-.344.208-.665.024-.321.024-.776.024-1.244" class="svg-elem-57"/><path d="M171.603 127.427c0-.121 0-.242.121-.788s.363-1.514.612-2.511" class="svg-elem-58"/><path d="M173.07 122.295c.238-.846 2.312-3.17 3.354-3.724.177-.094-.29.777-.116.849s1.021-.534 1.034-.664c.085-.861-2.311.97-2.925 1.338-1.726 1.036 3.414-1.34 3.359-1.585-.84-3.752-6.044 2.196-6.719 2.502-2.025.919 6.272-2.011 8.293-2.379.827-.151-2.245.973-2.25 1.218-.079 3.518 5.738-1.587 6.05-1.284 3.12 3.028-6.166 3.971-6.657 4.035-.007-.177.477-.782 1.21-1.336.733-.553 1.701-1.037 2.698-1.536" class="svg-elem-59"/><path d="M150.343 125.961c-.367-.605-.609-2.559-1.157-3.779-1.889-.986-3.85-1.349-4.217-2.141-.124-.429-.124-.913-.491-1.778" class="svg-elem-60"/><path d="M111.221 166.82c-.325 1.221-.651 2.442-.941 3.233-.29.792-.534 1.118-.741 1.448s-.37.656-.784 1.238" class="svg-elem-61"/><path d="M108.508 168.3a1471 1471 0 0 1-4.052 3.192c-.959.751-1.285.995-1.575 1.203-.29.207-.534.37-.785.537" class="svg-elem-62"/><path d="M104.563 166.82c0-.081 0-.163-1.018.487-1.017.65-3.052 2.034-5.641 3.952" class="svg-elem-63"/><path d="M99.383 165.34c-1.383 1.221-2.767 2.442-3.683 3.193s-1.323.995-1.655 1.202-.576.37-.827.538" class="svg-elem-64"/><path d="M120.266 98.61c0 .504.252 2.021 1.01 4.305.361 1.085 1.262 1.78 2.783 2.169 1.522.389 3.786.389 4.953-.115 1.166-.503 1.166-1.509 1.04-2.405-.235-1.677-1.391-3.435-3.415-5.337-5.302-4.983-11.952-2.177-13.854-1.419-.957.382-1.651 1.262-2.04 2.154s-.389 1.899.114 2.417c.504.519 1.51.519 2.28.141.77-.377 1.273-1.132 1.407-2.024.133-.892-.118-1.898-1.254-2.417-2.904-1.325-5.978-.267-7.373.492-3.049 1.657-2.166 7.605-.153 12.821.68 1.762 3.279 2.912 5.07 3.69s3.302.778 4.331.023c2.205-1.617 1.8-6.085.664-10.271-2.215-8.158-14.076-9.546-28.17-10.072-4.284-.16-6.523 2.532-8.3 4.941-2.848 3.863-1.54 8.768-.53 11.94.487 1.526 2.018 2.417 3.295 2.558s2.535-.613 3.309-1.883c.774-1.269 1.025-3.031.903-4.315s-.625-2.04-1.387-2.555c-1.598-1.078-4.316-1.025-7.106-.522-6.854 1.236-4.85 15.981-3.08 22.222.762 1.407 1.768 2.665 3.167 3.565 1.4.899 3.16 1.402 4.975 1.921" class="svg-elem-65"/><path d="M204.899 101.66c2.517 0 6.329-.251 11.525-1.513 5.448-2.772 9.306-5.09 11.208-6.607.896-1.014 1.651-2.524 2.429-4.08" class="svg-elem-66"/><path d="M211.761 61.25c-2.516 0-5.322.503-7.861 1.894-2.312 1.268-2.051 4.45-1.799 6.603.136 1.167.755 2.406 1.517 3.18 3.33 3.38 13.679.278 22.478-4.285 1.418-1.53 1.921-3.29 2.18-5.833s.26-5.814.26-9.184" class="svg-elem-67"/><path d="M226.248 49.05c-.503-1.006-1.517-2.28-3.541-3.675-2.668-1.838-6.104-1.662-8.387-1.41-1.05.115-1.781.754-2.296 1.894-1.234 2.735-.773 5.974-.015 8.006.324.867 1.262 1.026 2.532.904 1.269-.122 3.03-.626 4.189-1.388 2.028-1.334 2.181-6.077 1.426-12.417-.74-6.216-6.084-11.204-10.899-16.023-9.876-9.883-20.354-10.202-23.019-9.95-1.177.11-1.91.755-2.551 1.895-3.395 6.042-.404 13.583 2.257 18.405 2.131 3.863 11.514 5.113 22.691 5.498 4.132.142 5.139-.873 5.658-2.394 1.233-3.617.015-7.88-1.88-11.933-5.385-11.518-18.89-15.764-29.332-18.326-2.733-.67-6.073-.259-8.009.244-1.937.503-2.44 1.51-2.825 2.909-1.737 6.312-.141 11.06 1.506 13.599 1.327 2.047 5.954 2.05 10.907 1.925 1.936-.05 2.687-.378 3.076-1.514s.389-3.149-.114-4.94c-2.243-7.985-15.966-10.942-23.869-12.352-1.765-.315-3.549-.13-4.834.247-1.285.378-2.04 1.133-2.429 3.283s-.389 5.673.24 7.865c1.841 6.413 13.05 6.012 19.912 5.383 2.407-.22 2.333-1.887 2.208-3.29-.263-2.926-3.153-6.985-9.482-11.93-7.889-6.164-16.797-7.78-23.255-8.924-8.102-1.435-14.144-.137-16.553.747-2.544.934-3.446 4.186-3.828 7.354-.408 3.398.122 7.248 1.259 11.052 1.166 3.908 5.71 5.864 10.266 7.64 6.234 2.431 13.728 1.54 19.062.782 2.102-.3 2.817-1.262 3.332-2.154 1.023-1.774 1.025-4.445.27-7.74-.987-4.309-6.084-7.128-11.025-9.412-5.417-2.503-11.574-2.558-16.271-2.18-1.959.157-2.935 1.132-3.58 2.15-1.308 2.066-1.155 5.333-.903 9.511.33 5.479 3.034 10.309 6.835 13.355 7.599 6.09 15.269 4.342 17.045 3.462 1.048-.52 1.274-2.642 1.407-4.053.562-5.94-13.019-13.076-27.262-17.548-7.541-2.368-12.756-.4-14.026 1.12-1.091 1.308-1.025 4.313-.648 7.74.161 1.455 1.133 2.169 2.528 2.684 3.277 1.209 7.243 1.025 10.415.773 1.429-.113 2.417-.754 3.062-1.643 1.365-1.882 1.155-4.449.777-6.728-.49-2.965-4.426-6.1-8.993-8.894-3.229-1.976-8.387-1.544-13.972-1.041-2.359.212-3.572 1.51-4.472 2.783-1.799 2.545-2.173 7.106-2.051 12.935.135 6.48 4.933 12.722 10.381 18.177 5.292 5.3 18.379 6.264 32.477 6.016 5.314-.093 6.801-1.758 7.579-3.286 1.533-3.013-.48-7.621-3.896-12.566-8.283-11.99-23.995-11.852-32.374-11.604-3.383.1-4.857 1.757-5.887 3.286-2.027 3.01-2.051 8.879-1.044 15.73 1.933 13.156 23.842 13.263 32.988 13.015 3.394-.092 4.113-1.758 4.502-3.412.844-3.59-.869-8.006-4.662-13.073-5.249-7.01-14.224-11.456-22.337-15.009-7.788-3.411-15.783-3.583-22.126-3.458-4.848.096-8.921 2.147-12.6 5.44-3.57 3.197-4.472 11.91-3.847 22.066.259 4.202 2.89 6.13 5.06 7.545 4.134 2.696 8.779 2.947 11.954 2.066 1.406-.39 1.415-2.642 1.419-4.304.007-3.181-2.269-6.489-5.566-9.66-2.663-2.562-5.852-3.706-9.276-3.961-1.657-.124-3.171.247-4.327 1.006-1.91 2.017-2.687 5.074-2.562 8.372.126 1.536.378 2.794.637 4.09" class="svg-elem-68"/><path anim:x="0[0.3:0.4:100:ease-in-out]" d="M243.785 100.135c-.503 0 .999-1.761 3.668-6.19 3.229-5.36.655-11.583-.984-15.51-2.348-5.625-8.509-8.783-12.439-11.322-3.348-2.163-6.501-1.8-8.529-1.04-1.068.399-2.028 1.261-2.798 2.405-1.644 2.441-1.792 9.24-.785 17.746.425 3.591 3.019 5.234 5.188 6.393 7.979 4.263 14.377 1.678 16.664.412 1.691-.935 1.029-4.064 1.033-7.102.005-4.168-4.548-8.643-10.629-12.829-6.485-4.465-14.498-5.741-22.603-6.885-10.026-1.415-17.582.87-20.377 3.405-1.216 1.103-1.285 2.535-1.288 3.56-.004 1.026.247 1.78 1.258 2.044 1.01.263 2.771.011 3.679-1.376.907-1.388.907-3.904.53-5.83-1.493-7.612-17.602-11.067-29.828-11.726-2.341-.127-3.572 1.132-4.22 3.534-1.683 6.237.61 14.098 4.025 20.567 7.13 13.503 28.555 9.832 35.215 8.319 2.882-.655.781-7.103-2.12-12.802-1.808-3.552-6.675-6.957-13.03-10.789s-14.659-7.605-21.578-10.053c-11.957-4.23-23.686-4.743-33.59-4.369-3.914.148-5.376 2.135-6.279 3.92-3.731 7.366-.912 14.997.606 19.309 3.692 10.49 20.586 7.91 22.492 7.281.858-.283.649-1.887.523-3.29s-.378-2.913-2.017-4.57c-4.063-4.11-12.047-6.493-22.554-8.525-14.057-2.719-24.84-.782-28.65.484-2.752.915-3.328 4.315-3.709 7.61-.205 1.776-.13 3.796.877 6.091 2.281 5.202 9.371 9.165 18.997 12.211 11.266 3.565 21.391 2.314 26.599.923 2.058-.55 2.439-2.147 2.699-3.675.551-3.254-.999-7.621-4.415-12.691-4.049-6.01-12.565-9.173-20.933-11.838-13.601-4.33-21.635-2.184-25.974.728-5.98 4.015-1.288 14.358.48 17.655 4.885 9.106 23.835 6.378 32.146 5.242 1.308-.179 1.662-1.64 1.921-3.164.595-3.497-.998-7.876-4.666-12.691-4.827-6.338-14.09-9.931-24.35-13.48-23.752-8.218-35.526-4.861-36.796-3.344-3.964 4.738-.522 11.94 1.624 15.615 2.978 5.1 11.037 6.756 19.146 7.9 9.034 1.274 16.305.137 19.988-.874 1.55-.425 1.921-2.016 2.18-3.545.552-3.254-2.76-8.879-9.222-15.478-5.982-6.11-15.634-7.66-24.132-9.565-7.092-1.591-12.119-.397-15.035.99-3.725 1.773-3.961 11.766-3.332 24.068.547 10.695 6.202 19.241 12.664 26.847 12.662 14.902 24.037 17.083 28.486 16.961 1.477-.041 1.178-1.38-.084-3.031-3.2-4.186-8.124-8.01-13.316-11.182-5.879-3.59-14.106-3.454-21.212-2.95-5.3.375-8.425 4.307-10.332 7.983-.93 1.793-.648 3.926-.27 5.341.63 2.364 7.445 3.198 16.587 2.95 3.64-.098 5.116-1.757 5.894-3.537s.778-4.045.275-6.218c-1.004-4.336-6.321-8.273-14.43-11.952-16.45-7.463-25.974-3.969-28.257-3.084-1.124.435-1.78 1.64-2.17 2.66-.388 1.023-.388 2.029.367 3.302 1.83 3.087 6.839 5.597 15.691 7.629 14.059 3.227 26.221.278 31.048-1.876 1.954-.872 2.31-2.406 2.57-3.934.551-3.254-1-7.118-4.164-10.797-7.598-8.834-20.708-6.507-25.66-6.13-1.964.15-2.688 1.132-3.329 2.15-1.356 2.156-1.662 6.34-.656 11.163.916 4.388 8.868 5.364 16.851 6.507 8.658 1.241 16.927-.366 23.019-2.264 2.685-.837 4.08-2.654 4.983-4.438 1.793-3.54 1.414-8.89-.347-15.855-2.501-9.89-11.178-15.413-15.616-18.334-2.057-1.354-4.186-1.662-5.6-1.795-1.414-.134-2.17.118-2.558.75-.389.634-.389 1.64-.263 2.662.126 1.021.377 2.028 1.388 2.672 2.455 1.566 7.857 1.155 15.203.904 18.302-.627 28.002-7.869 30.034-11.159 2.579-4.176.278-10.167-2.631-14.986-7.807-12.933-24.28-12.49-26.82-11.609-2.885 1.001-2.05 5.463-1.799 7.491.13 1.045.755 2.029 1.769 2.673 5.025 3.192 10.675.652 12.707-.74 1.962-1.344 1.284-5.204.152-8.879-1.529-4.962-9.504-7.761-17.739-10.556-9.071-3.078-15.432-1.04-16.702.35-3.242 3.555-.522 8.514.87 10.672 4.255 6.598 16.9 3.446 18.806 2.691.925-.366.648-2.265-.233-3.671-4.763-7.608-18.387-7.263-26.26-7.015-3.13.099-4.349 1.758-5.123 3.16-1.491 2.704-1.285 7.236-.656 12.814.66 5.85 8.468 12.203 18.109 18.299 6.952 4.396 13.263 3.854 16.694 3.35 1.257-.183 1.167-1.509.412-2.782-4.528-7.639-21.28-8.898-33.77-9.298-2.588-.083-4.574 1.132-6.115 2.276-2.952 2.192-3.835 5.718-3.839 9.64-.005 5.773 3.794 11.068 8.479 14.873 10.439 8.477 20.476 6.382 23.777 6.004 1.334-.152 1.792-1.132 1.297-2.15-3.485-7.158-14.968-7.888-19.306-7.137-1.766.306-2.547 4.304-3.69 9.371-1.34 5.936.366 10.953 2.642 13.87 2.848 3.649 7.88 3.96 10.548 3.331 1.075-.253.908-1.887.404-2.786-1.006-1.8-4.81-2.173-9.123-2.555-3.795-.335-8.39 1.38-12.961 4.548-3.51 2.433-3.588 10.267-2.711 19.401.764 7.964 9.005 12.749 14.96 17.316 6.027 4.623 14.365 6.374 18.954 7.4 11.903 2.659-25.603-9.146-31.851-6.744-1.363.523-1.91 1.898-2.3 3.423-.388 1.525-.388 3.538-.137 5.078.252 1.54.755 2.547 2.524 3.443 13.729 6.953 31.52 1.925 33.43.156.974-.902-.354-3.279-1.624-4.441-7.205-6.6-21.093-.919-24.013.602-1.233.642-1.663 1.521-1.796 2.665-.133 1.143.118 2.653.751 3.808 4.151 7.578 21.212 1.682 23.88-.598 1.19-1.016.908-2.783.153-4.693s-2.265-4.175-4.93-6.096c-5.918-4.267-19.133-5.238-32.98-4.865-5.076.137-6.046 2.135-6.69 3.794-1.28 3.295-1.156 8.002-.4 14.082.916 7.384 7.593 15.002 14.821 21.982 10.383 10.027 20.496 7.804 23.29 6.92 1.986-.629 1.544-4.69 1.167-8.62-.368-3.832-3.42-6.5-6.462-8.025-2.76-1.383-6.108-.015-8.898 1.25-2.634 1.195-3.325 8.342-2.696 17.484.252 3.652 1.888 5.116 4.297 6.523 2.41 1.406 5.932 2.664 7.998 2.809s2.57-.861 2.703-1.757c.134-.896-.118-1.651-.75-2.166-1.405-1.141-3.684-1.025-5.963-.522-3.092.683-5.094 3.553-6.489 5.833-1.57 2.566-1.914 6.351-2.17 9.779-.104 1.41.249 2.169 1.51 2.935 8.048 4.887 21.308 1.292 28.082-2.638 2.91-1.689 1.415-7.24.03-12.055-1.863-6.484-11.532-10.434-21.539-14.242-5.32-2.025-11.769-2.299-15.638-1.933-3.87.366-5.128 1.875-5.65 3.282s-.27 2.665.362 3.565c1.241 1.764 4.438 1.921 8.239 1.669 4.36-.288 8.147-2.531 10.56-5.444 2.453-2.96 1.162-10.773-.225-19.53-1.06-6.683-7.488-9.329-12.68-11.231-6.252-2.291-11.841-2.429-15.139-2.051-1.572.18-2.794 1.132-3.568 1.898-1.304 1.291-1.285 3.809-.656 7.228.829 4.506 5.7 8.018 11.022 10.557 5.436 2.593 10.194 2.051 12.226 1.422 2.051-.635 1.285-4.693.278-8.239-1.492-5.254-9.37-9.408-17.613-13.091-7.057-3.154-13.13-2.44-16.808-2.063-1.7.175-2.925 1.133-3.573 4.289-1.753 8.538 1.868 17.918 7.568 24.765 6.024 7.236 14.62 11.468 22.226 14.769 7.167 3.111 13.507 2.31 16.43 1.178 1.356-.525.66-3.397-.476-5.444-5.252-9.464-20.678-7.911-28.802-7.03-3.437.373-5.104 2.642-6.264 4.304-4.418 6.337-3.453 14.113-1.688 18.04 2.6 5.786 11.913 9.035 22.93 11.956 13.423 3.557 23.325 1.929 26.12 1.17 1.11-.302 1.284-1.262 1.162-2.657-.302-3.452-2.905-6.992-7.084-9.908-4.964-3.466-10.811-4.213-14.997-4.343a7.06 7.06 0 0 0-4.46 1.388c-1.881 1.393-2.052 4.316-1.926 7.735.154 4.189 2.65 8.521 7.46 12.325 5.594 4.424 16.996 5.361 29.432 5.997 5.385.276 8.913-.118 10.98-1.002 2.066-.885 2.57-2.394 1.948-3.927-1.452-3.581-7.972-6.611-15.83-10.038-15.895-6.934-27.238-2.954-30.029-.93-3.073 2.229-3.324 6.858-2.947 11.418a16.03 16.03 0 0 0 3.157 8.253c4.362 5.792 12.44 7.789 20.423 8.552 8.702.831 16.926-.748 22.767-2.902 2.426-.895 3.324-2.405 3.843-4.563.518-2.158.518-5.177-.237-7.613a10.15 10.15 0 0 0-3.923-5.357c-3.116-2.178-8.002-2.18-12.573-1.551-1.892.26-2.558 1.887-2.947 3.416-.816 3.21.115 6.614 2.261 10.034 7.065 11.256 22.97 11.326 27.716 11.216.644-.015-.614-1.887-2.387-2.913-4.221-2.442-9.908-2.558-15.23-2.306-5.867.277-11.956 4.041-16.908 9.995-8.98 10.799-2.962 22.264-.941 26.447 2.607 5.397 10.651 7.521 19.393 8.665 9.923 1.298 16.198.137 17.342-1.628.85-1.311.389-4.281-.618-6.21-1.947-3.734-14.15-4.476-29.007-4.735-8.159-.142-11.906 3.797-14.32 6.713-1.851 2.238-1.414 5.22-1.037 7.881.44 3.094 4.175 5.977 8.99 8.642 4.944 2.736 11.692 2.939 16.904 1.811 2.131-.462 1.437-4.399-.076-7.087-3.213-5.704-10.153-8.292-15.734-9.817-4.441-1.213-8.661.236-12.34 2.009-3.339 1.609-4.724 5.334-5.486 9.764-1.051 6.106.495 11.833 2.771 15.512 5.243 8.475 15.253 6.759 17.163 6.511.635-.082-.354-1.757-1.624-2.657-2.725-1.931-8.871-1.921-15.726-1.544-4.477.247-6.9 2.665-8.677 4.941-2.457 3.148-1.54 7.377-.53 9.66 3.03 6.847 14.735 5.608 17.023 4.853 1.029-.339.777-2.264.4-3.419s-1.132-1.91-2.276-2.299c-2.539-.863-5.215-.137-7.118.747-2.11.981-2.931 3.683-3.694 5.963-.412 1.232-.259 2.783.118 4.064 2.338 7.932 19.935 5.611 22.985 4.982 1.188-.245 1.037-1.887.911-2.912-.126-1.026-.377-1.781-1.765-2.169-3.778-1.059-8.51.365-12.062 2.012-1.615.749-2.547 1.899-3.065 3.046-.519 1.148-.519 2.406.613 3.306 2.878 2.286 7.995 2.173 11.803 2.051 1.588-.051 2.3-1.38 2.185-2.276s-1.12-1.651-2.898-2.04c-1.776-.389-4.292-.389-7.647 1.136" class="svg-elem-69"/><path d="M82.905 263.303c-.252 1.769-.763 7.838.625 12.821 1.632 5.858 11.04 3.191 15.105 2.687 1.615-.2 2.05-1.509 2.184-2.657.133-1.147-.118-2.405-1.758-3.179-4.313-2.037-9.279-1.033-12.07.103-3.066 1.248-4.079 5.711-5.222 9.637-1.314 4.511.114 8.784 1.883 12.078 2.373 4.419 6.862 6.626 10.534 7.769 2.096.654 4.929.389 5.726.012.796-.378-.462-1.133-2.116-1.521-3.59-.844-7.755.114-12.062 2.009-5.532 2.432-8.662 8.757-10.694 15.34-2.553 8.273-.53 15.033 1.746 17.823 2.796 3.428 9.39 3.324 14.346 2.444 1.872-.333 1.685-2.642 1.056-3.549-.63-.908-1.887-.908-2.913-.656-1.025.251-1.78.755-2.42 1.643-1.423 1.973-1.663 5.707-1.16 9.264.195 1.373 1.51 1.544 2.658 1.674s2.405.129 3.305-.626 1.403-2.264 1.921-3.82" class="svg-elem-70"/><path anim:y="0[0.1:0.2:100:ease-in-out]" d="M95.105 201.543c0 4.293 2.012 12.428 4.193 14.739 1.332 1.41-4.94-1.014-7.731-.385-1.392.313-2.288 1.887-2.806 3.29-1.026 2.775-.267 5.474.492 7.125 1.497 3.258 7.613 1.918 10.281 1.414 1.02-.192.908-1.509.279-1.525-.63-.015-1.887.992-2.661 2.139-.774 1.148-1.026 2.406-1.03 3.557-.003 1.151.248 2.158 1.007 2.676s2.017.519 2.539.015c.522-.503.27-1.509-1.243-2.028-1.513-.518-4.281-.518-5.833.111-2.419.981-2.062 7.461-1.307 14.696.316 3.037 2.264 4.468 3.67 5.498 2.482 1.815 5.22 2.051 7.126 1.422.858-.283.648-1.887.271-2.787-.378-.9-1.132-1.403-2.276-1.662-2.6-.59-5.215-.008-6.992 1.38-2.677 2.091-1.792 6.229-1.414 8.257.873 4.692 8.993 5.345 13.949 5.986 1.675.216 1.685-1.121 1.308-1.765-.73-1.246-3.672-1.156-6.466-.778-1.09.147-1.285 1.132-1.415 2.024-.273 1.883.122 3.942 1.762 6.096 2.777 3.649 9.012 3.702 12.95 3.199 1.496-.192 1.674-1.51 1.803-2.658.13-1.147.13-2.405-.876-3.808-2.446-3.409-7.107-4.72-11.666-5.101-5.548-.464-9.683.625-11.46 2.524-2.01 2.149-1.792 7.48-1.288 13.442.415 4.923 4.307 8.54 8.36 11.837 4.483 3.648 11.181 4.343 16.012 4.221 1.603-.041 1.307-1.38-.961-1.899-6.401-1.463-12.211.236-14.369 1.758-.966.681-1.403 1.521-1.284 3.168.118 1.647.873 4.163 2.645 5.836 3.744 3.535 13.934 3.206 23.972 2.829 3.514-.132 3.748-1.132 3.877-2.024.13-.892.13-1.899-.499-2.543-3.206-3.284-7.75-.904-9.02-.145-.62.371-.766 1.262-.896 2.154s-.13 1.899.5 2.794c1.44 2.052 5.699 2.429 9.385 2.051 1.224-.125.919-1.132.286-1.898-1.424-1.724-3.934-2.551-6.469-2.932-5.543-.833-10.175 2.15-11.952 4.301-2.317 2.804-1.792 6.74-1.414 9.023.344 2.082 4.174 3.816 7.983 5.597 1.476.69 2.299.27 2.31-.614s-.743-2.394-2.642-3.172c-4.607-1.887-8.783-.274-10.179.866-.699.571-1.143 1.391-1.403 2.283a4.62 4.62 0 0 0 .119 2.92c.377 1.022 1.132 2.029 2.275 2.799 2.442 1.643 6.474 1.791 9.905 1.288 1.257-.184 1.166-1.509.286-2.028-.881-.518-2.642-.518-3.801.111-2.21 1.199-2.432 3.938-2.688 5.459-.127.756.248 1.521.881 2.036.633.514 1.639.766 2.535.77s1.651-.248 1.536-.755c-.371-1.647-4.673-2.04-8.989-1.662-1.832.16-2.806 1.132-3.45 2.024s-.896 1.899-.522 3.172c.373 1.273 1.38 2.783 3.03 3.561 1.651.777 3.916.777 5.208.148s1.544-1.887 1.17-2.786c-.373-.9-1.38-1.403-2.401-1.537-1.022-.133-2.029.118-4.59 1.14" class="svg-elem-71"/><path d="M63.08 163.42c.504.503 1.518 1.014 3.039 1.144.766-.122 1.521-.626 1.91-1.514s.389-2.146.389-3.442" class="svg-elem-72"/><path d="M68.418 156.558c-.504 0-1.77 0-3.797.629-7.043 2.184-4.575 15.367-8.262 21.707-4.831 8.309-3.953 15.772-3.324 18.94 1.544 7.777 11.296 8.025 14.723 8.536 1.414.007 2.17-.496.168-.755s-6.782-.259-11.708-.259" class="svg-elem-73"/><path d="M136.55 266.415c0 1.679 2.224 10.22 3.462 17.11.093 1.219.278 2.701.374 4.021s.095 2.431.095 3.577" class="svg-elem-74"/></g><defs><clipPath id="a"><path fill="#fff" d="M0 0h267.683v354.106H0z" class="svg-elem-75"/></clipPath></defs></svg>